<svg width="72" height="19" viewBox="0 0 72 19" fill="none" xmlns="http://www.w3.org/2000/svg">
<path d="M4.29102 14.0176H0.142578V0.833984H4.29102C6.88086 0.833984 8.87012 1.4082 10.2588 2.55664C11.6475 3.69922 12.3418 5.31641 12.3418 7.4082C12.3418 9.50586 11.6475 11.1318 10.2588 12.2861C8.87012 13.4404 6.88086 14.0176 4.29102 14.0176ZM4.35254 11.6445C6.05176 11.6445 7.35254 11.2754 8.25488 10.5371C9.16309 9.79297 9.61719 8.75 9.61719 7.4082C9.61719 6.07227 9.16309 5.03809 8.25488 4.30566C7.35254 3.57324 6.05176 3.20703 4.35254 3.20703H2.83203V11.6445H4.35254Z" fill="black"/>
<path d="M13.6426 2.22266C13.6426 1.80078 13.7715 1.46094 14.0293 1.20312C14.2871 0.945312 14.627 0.816406 15.0488 0.816406C15.4707 0.816406 15.8105 0.945312 16.0684 1.20312C16.3262 1.46094 16.4551 1.80078 16.4551 2.22266C16.4551 2.64453 16.3262 2.98438 16.0684 3.24219C15.8105 3.5 15.4707 3.62891 15.0488 3.62891C14.627 3.62891 14.2871 3.5 14.0293 3.24219C13.7715 2.98438 13.6426 2.64453 13.6426 2.22266ZM13.7832 14V5.21094H16.3145V14H13.7832Z" fill="black"/>
<path d="M22.124 5.03516C22.6982 5.03516 23.2285 5.13477 23.7148 5.33398C24.207 5.52734 24.6377 5.80273 25.0068 6.16016L25.0684 5.21094H27.459V12.9717C27.459 14.0967 27.2451 15.0781 26.8174 15.916C26.3955 16.7539 25.8008 17.4043 25.0332 17.8672C24.2715 18.3359 23.375 18.5703 22.3438 18.5703C21.7754 18.5703 21.1719 18.4912 20.5332 18.333C19.8945 18.1748 19.2412 17.9287 18.5732 17.5947L19.3379 15.4941C19.6309 15.7402 20.041 15.9482 20.5684 16.1182C21.0957 16.2939 21.6025 16.3818 22.0889 16.3818C22.9619 16.3818 23.6533 16.0889 24.1631 15.5029C24.6729 14.9229 24.9277 14.1377 24.9277 13.1475V13.1299C24.5586 13.458 24.1367 13.7158 23.6621 13.9033C23.1875 14.085 22.6748 14.1758 22.124 14.1758C21.3037 14.1758 20.5684 13.9795 19.918 13.5869C19.2734 13.1885 18.7666 12.6465 18.3975 11.9609C18.0283 11.2695 17.8438 10.4844 17.8438 9.60547C17.8438 8.72656 18.0283 7.94434 18.3975 7.25879C18.7666 6.56738 19.2734 6.02539 19.918 5.63281C20.5684 5.23438 21.3037 5.03516 22.124 5.03516ZM22.6953 11.9785C23.3398 11.9785 23.873 11.7529 24.2949 11.3018C24.7168 10.8506 24.9277 10.2852 24.9277 9.60547C24.9277 8.92578 24.7168 8.36035 24.2949 7.90918C23.873 7.45801 23.3398 7.23242 22.6953 7.23242C22.0508 7.23242 21.5176 7.45801 21.0957 7.90918C20.6738 8.36035 20.4629 8.92578 20.4629 9.60547C20.4629 10.2852 20.6738 10.8506 21.0957 11.3018C21.5176 11.7529 22.0508 11.9785 22.6953 11.9785Z" fill="black"/>
<path d="M29.4629 2.22266C29.4629 1.80078 29.5918 1.46094 29.8496 1.20312C30.1074 0.945312 30.4473 0.816406 30.8691 0.816406C31.291 0.816406 31.6309 0.945312 31.8887 1.20312C32.1465 1.46094 32.2754 1.80078 32.2754 2.22266C32.2754 2.64453 32.1465 2.98438 31.8887 3.24219C31.6309 3.5 31.291 3.62891 30.8691 3.62891C30.4473 3.62891 30.1074 3.5 29.8496 3.24219C29.5918 2.98438 29.4629 2.64453 29.4629 2.22266ZM29.6035 14V5.21094H32.1348V14H29.6035Z" fill="black"/>
<path d="M35.2021 5.21094V4.02441C35.2021 3.30957 35.3574 2.7002 35.668 2.19629C35.9785 1.69238 36.3887 1.30859 36.8984 1.04492C37.4082 0.775391 37.959 0.640625 38.5508 0.640625C38.9375 0.640625 39.3271 0.699219 39.7197 0.816406C40.1182 0.933594 40.5049 1.11523 40.8799 1.36133L39.9043 3.14551C39.7578 3.02246 39.6025 2.94043 39.4385 2.89941C39.2744 2.8584 39.125 2.83789 38.9902 2.83789C38.6152 2.83789 38.3105 2.96387 38.0762 3.21582C37.8477 3.46191 37.7334 3.8457 37.7334 4.36719V5.21094H39.8691V7.4082H37.7334V14H35.2021V7.4082H33.752V5.21094H35.2021Z" fill="black"/>
<path d="M44.8262 0.464844V14H42.2949V0.464844H44.8262Z" fill="black"/>
<path d="M46.4961 9.60547C46.4961 8.72656 46.6982 7.94434 47.1025 7.25879C47.5127 6.56738 48.0693 6.02539 48.7725 5.63281C49.4814 5.23438 50.2871 5.03516 51.1895 5.03516C52.0918 5.03516 52.8945 5.23438 53.5977 5.63281C54.3008 6.02539 54.8545 6.56738 55.2588 7.25879C55.6689 7.94434 55.874 8.72656 55.874 9.60547C55.874 10.4844 55.6689 11.2695 55.2588 11.9609C54.8545 12.6465 54.3008 13.1885 53.5977 13.5869C52.8945 13.9795 52.0918 14.1758 51.1895 14.1758C50.2871 14.1758 49.4814 13.9795 48.7725 13.5869C48.0693 13.1885 47.5127 12.6465 47.1025 11.9609C46.6982 11.2695 46.4961 10.4844 46.4961 9.60547ZM48.957 9.60547C48.957 10.2852 49.168 10.8506 49.5898 11.3018C50.0117 11.7529 50.5449 11.9785 51.1895 11.9785C51.834 11.9785 52.3672 11.7529 52.7891 11.3018C53.2109 10.8506 53.4219 10.2852 53.4219 9.60547C53.4219 8.92578 53.2109 8.36035 52.7891 7.90918C52.3672 7.45801 51.834 7.23242 51.1895 7.23242C50.5449 7.23242 50.0117 7.45801 49.5898 7.90918C49.168 8.36035 48.957 8.92578 48.957 9.60547Z" fill="black"/>
<path d="M56.6738 5.21094H59.3369L60.7695 9.77246C60.8398 10.001 60.9043 10.2178 60.9629 10.4229C61.0273 10.6279 61.0859 10.8242 61.1387 11.0117C61.1855 10.8242 61.2354 10.6279 61.2881 10.4229C61.3467 10.2178 61.4082 10.001 61.4727 9.77246L62.9053 5.21094H65.4277L66.8604 9.77246C66.9307 10.001 66.9951 10.2178 67.0537 10.4229C67.1182 10.6279 67.1768 10.8271 67.2295 11.0205C67.2764 10.8271 67.3262 10.6279 67.3789 10.4229C67.4375 10.2178 67.499 10.001 67.5635 9.77246L68.9961 5.21094H71.501L68.5566 14H66.0518C65.7119 12.9688 65.3867 11.9551 65.0762 10.959C64.7715 9.96289 64.4844 8.95801 64.2148 7.94434C63.9629 8.96973 63.6729 9.98633 63.3447 10.9941C63.0166 12.002 62.6621 13.0039 62.2812 14H59.6182L56.6738 5.21094Z" fill="black"/>
</svg>
