<svg width="355" height="24" viewBox="0 0 355 24" fill="none" xmlns="http://www.w3.org/2000/svg">
<path d="M257 6.13333H250V4H257V6.13333ZM258.726 16.8C258.284 18.1835 256.697 20 253.625 20C250.551 20 248.061 18.1557 248.061 13.9467C248.061 9.776 250.386 7.632 253.527 7.632C256.609 7.632 258.491 9.5328 258.902 12.3531C258.98 12.8928 259.011 13.6203 258.997 14.6357H250.97C251.1 18.0608 254.453 18.1685 255.558 16.8H258.726ZM251.04 12.5333H256.005C255.9 10.8832 254.869 10.1664 253.528 10.1664C252.062 10.1664 251.251 10.9856 251.04 12.5333ZM241.466 19.9872H235V4.0224H241.953C247.429 4.1088 247.533 9.82933 244.673 11.3888C248.134 12.7328 248.25 19.9872 241.466 19.9872ZM238 10.4H241.584C244.092 10.4 244.49 7.2 241.272 7.2H238V10.4ZM241.391 13.6H238V16.8171H241.341C244.396 16.8171 244.209 13.6 241.391 13.6Z" fill="black" fill-opacity="0.5"/>
<line y1="11.5" x2="205" y2="11.5" stroke="#E2E2E2"/>
<path d="M343 2.163C346.204 2.163 346.584 2.175 347.85 2.233C351.102 2.381 352.621 3.924 352.769 7.152C352.827 8.417 352.838 8.797 352.838 12.001C352.838 15.206 352.826 15.585 352.769 16.85C352.62 20.075 351.105 21.621 347.85 21.769C346.584 21.827 346.206 21.839 343 21.839C339.796 21.839 339.416 21.827 338.151 21.769C334.891 21.62 333.38 20.07 333.232 16.849C333.174 15.584 333.162 15.205 333.162 12C333.162 8.796 333.175 8.417 333.232 7.151C333.381 3.924 334.896 2.38 338.151 2.232C339.417 2.175 339.796 2.163 343 2.163ZM343 0C339.741 0 339.333 0.014 338.053 0.072C333.695 0.272 331.273 2.69 331.073 7.052C331.014 8.333 331 8.741 331 12C331 15.259 331.014 15.668 331.072 16.948C331.272 21.306 333.69 23.728 338.052 23.928C339.333 23.986 339.741 24 343 24C346.259 24 346.668 23.986 347.948 23.928C352.302 23.728 354.73 21.31 354.927 16.948C354.986 15.668 355 15.259 355 12C355 8.741 354.986 8.333 354.928 7.053C354.732 2.699 352.311 0.273 347.949 0.073C346.668 0.014 346.259 0 343 0V0ZM343 5.838C339.597 5.838 336.838 8.597 336.838 12C336.838 15.403 339.597 18.163 343 18.163C346.403 18.163 349.162 15.404 349.162 12C349.162 8.597 346.403 5.838 343 5.838ZM343 16C340.791 16 339 14.21 339 12C339 9.791 340.791 8 343 8C345.209 8 347 9.791 347 12C347 14.21 345.209 16 343 16ZM349.406 4.155C348.61 4.155 347.965 4.8 347.965 5.595C347.965 6.39 348.61 7.035 349.406 7.035C350.201 7.035 350.845 6.39 350.845 5.595C350.845 4.8 350.201 4.155 349.406 4.155Z" fill="black" fill-opacity="0.5"/>
<path d="M295 0C288.372 0 283 5.373 283 12C283 18.627 288.372 24 295 24C301.628 24 307 18.627 307 12C307 5.373 301.628 0 295 0ZM304.885 11.441C302.31 11.019 299.942 10.996 297.782 11.368C297.538 10.805 297.285 10.243 297.015 9.688C299.325 8.688 301.18 7.33 302.563 5.606C303.913 7.2 304.76 9.225 304.885 11.441ZM301.043 4.159C299.838 5.713 298.175 6.942 296.057 7.839C295.041 5.978 293.879 4.163 292.569 2.401C293.348 2.204 294.16 2.087 295 2.087C297.275 2.087 299.368 2.866 301.043 4.159ZM290.527 3.166C291.858 4.908 293.038 6.704 294.064 8.547C291.634 9.262 288.733 9.629 285.38 9.652C286.072 6.817 287.981 4.459 290.527 3.166ZM285.087 12L285.1 11.744C288.949 11.739 292.269 11.296 295.05 10.422C295.283 10.897 295.506 11.374 295.72 11.854C292.34 12.911 289.555 15.076 287.383 18.334C285.951 16.615 285.087 14.407 285.087 12ZM288.916 19.81C290.885 16.722 293.398 14.712 296.514 13.783C297.442 16.203 298.123 18.693 298.557 21.243C295.208 22.534 291.604 21.909 288.916 19.81ZM300.502 20.24C300.064 17.887 299.422 15.587 298.582 13.343C300.458 13.078 302.522 13.147 304.781 13.539C304.344 16.325 302.753 18.731 300.502 20.24Z" fill="black" fill-opacity="0.5"/>
</svg>
