<svg width="119" height="48" viewBox="0 0 119 48" fill="none" xmlns="http://www.w3.org/2000/svg">
<rect width="119" height="48" rx="24" fill="#1A47E6"/>
<path d="M33.0156 16.2812H35.4062V21.1641H40.5391V16.2812H42.9297V28H40.5391V23.2734H35.4062V28H33.0156V16.2812ZM44.7188 17.5312C44.7188 17.1562 44.8333 16.8542 45.0625 16.625C45.2917 16.3958 45.5938 16.2812 45.9688 16.2812C46.3438 16.2812 46.6458 16.3958 46.875 16.625C47.1042 16.8542 47.2188 17.1562 47.2188 17.5312C47.2188 17.9062 47.1042 18.2083 46.875 18.4375C46.6458 18.6667 46.3438 18.7812 45.9688 18.7812C45.5938 18.7812 45.2917 18.6667 45.0625 18.4375C44.8333 18.2083 44.7188 17.9062 44.7188 17.5312ZM44.8438 28V20.1875H47.0938V28H44.8438ZM49 28V20.1875H50.9688L51.0781 21.3047C51.6458 20.4557 52.4271 20.0312 53.4219 20.0312C53.7604 20.0312 54.1094 20.0833 54.4688 20.1875L54.1562 22.1328C53.8542 22.0339 53.5573 21.9844 53.2656 21.9844C52.6615 21.9844 52.1745 22.2083 51.8047 22.6562C51.4349 23.099 51.25 23.7318 51.25 24.5547V28H49ZM56.8984 24.7656C57.0391 25.1979 57.2969 25.5495 57.6719 25.8203C58.0521 26.0911 58.4948 26.2266 59 26.2266C59.5417 26.2266 59.9896 26.1406 60.3438 25.9688C60.7031 25.7917 61.0286 25.5651 61.3203 25.2891L62.6797 26.9141C62.0755 27.388 61.4766 27.7135 60.8828 27.8906C60.2943 28.0677 59.7292 28.1562 59.1875 28.1562C58.3229 28.1562 57.5599 27.9818 56.8984 27.6328C56.237 27.2786 55.7188 26.7943 55.3438 26.1797C54.9688 25.5599 54.7812 24.8568 54.7812 24.0703C54.7812 23.2943 54.9609 22.6042 55.3203 22C55.6797 21.3906 56.1693 20.9115 56.7891 20.5625C57.4141 20.2083 58.1224 20.0312 58.9141 20.0312C59.7005 20.0312 60.3984 20.2057 61.0078 20.5547C61.6224 20.9036 62.1068 21.3828 62.4609 21.9922C62.8151 22.6016 62.9922 23.2995 62.9922 24.0859V24.7656H56.8984ZM60.6797 23.5156C60.5703 23.0573 60.3464 22.6875 60.0078 22.4062C59.6693 22.125 59.263 21.9844 58.7891 21.9844C58.3099 21.9844 57.8932 22.1276 57.5391 22.4141C57.1901 22.7005 56.9609 23.0677 56.8516 23.5156H60.6797ZM70.4688 16.2812V22.8438C70.4688 23.8333 70.7083 24.6276 71.1875 25.2266C71.6667 25.8255 72.3021 26.125 73.0938 26.125C73.8854 26.125 74.5208 25.8255 75 25.2266C75.4792 24.6276 75.7188 23.8333 75.7188 22.8438V16.2812H78.1094V22.8438C78.1094 23.9271 77.901 24.8724 77.4844 25.6797C77.0677 26.487 76.4844 27.1146 75.7344 27.5625C74.9844 28.0104 74.1042 28.2344 73.0938 28.2344C72.0885 28.2344 71.2083 28.0104 70.4531 27.5625C69.7031 27.1146 69.1198 26.487 68.7031 25.6797C68.2865 24.8724 68.0781 23.9271 68.0781 22.8438V16.2812H70.4688ZM79.5938 27.0078L80.6562 25.3125C81.1042 25.6094 81.5156 25.8464 81.8906 26.0234C82.2708 26.1953 82.6094 26.2812 82.9062 26.2812C83.1354 26.2812 83.3203 26.2292 83.4609 26.125C83.6016 26.0208 83.6719 25.888 83.6719 25.7266C83.6719 25.4922 83.5391 25.3021 83.2734 25.1562C83.013 25.0104 82.7109 24.8672 82.3672 24.7266C82.0026 24.5755 81.6354 24.4062 81.2656 24.2188C80.901 24.026 80.5938 23.7786 80.3438 23.4766C80.099 23.1745 79.9766 22.7839 79.9766 22.3047C79.9766 21.6432 80.237 21.099 80.7578 20.6719C81.2839 20.2448 82.026 20.0312 82.9844 20.0312C83.4531 20.0312 83.9453 20.0911 84.4609 20.2109C84.9818 20.3255 85.4557 20.513 85.8828 20.7734L84.8906 22.4844C84.6615 22.3333 84.362 22.2005 83.9922 22.0859C83.6276 21.9661 83.3177 21.9062 83.0625 21.9062C82.9167 21.9062 82.7552 21.9375 82.5781 22C82.4062 22.0573 82.3203 22.1719 82.3203 22.3438C82.3203 22.5365 82.4401 22.6953 82.6797 22.8203C82.9245 22.9453 83.2135 23.0729 83.5469 23.2031C83.9062 23.3438 84.276 23.5104 84.6562 23.7031C85.0365 23.8906 85.3568 24.1432 85.6172 24.4609C85.8828 24.7734 86.0156 25.1849 86.0156 25.6953C86.0156 26.2057 85.875 26.6458 85.5938 27.0156C85.3125 27.3854 84.9375 27.6693 84.4688 27.8672C84 28.0599 83.4818 28.1562 82.9141 28.1562C82.3776 28.1562 81.8203 28.0625 81.2422 27.875C80.6693 27.6875 80.1198 27.3984 79.5938 27.0078Z" fill="white"/>
</svg>
