<svg width="197" height="64" viewBox="0 0 197 64" fill="none" xmlns="http://www.w3.org/2000/svg">
<path d="M88.92 30.616V37.276H97.38V41.092H88.92V52H83.376V26.8H98.928V30.616H88.92ZM112.186 31.948C113.338 31.948 114.178 32.2 114.706 32.704C115.234 33.184 115.498 33.964 115.498 35.044C115.498 35.452 115.438 35.86 115.318 36.268C115.222 36.652 115.078 36.952 114.886 37.168C114.598 37 114.274 36.88 113.914 36.808C113.554 36.736 113.038 36.7 112.366 36.7C110.806 36.7 109.642 37.18 108.874 38.14C108.13 39.1 107.758 40.564 107.758 42.532V52H102.43V32.2H107.758V34.828C108.238 33.892 108.862 33.184 109.63 32.704C110.398 32.2 111.25 31.948 112.186 31.948ZM135.745 40.804C135.745 41.14 135.685 41.896 135.565 43.072H122.821C122.941 44.896 123.373 46.312 124.117 47.32C124.885 48.328 125.881 48.832 127.105 48.832C127.657 48.832 128.113 48.76 128.473 48.616C128.857 48.472 129.241 48.22 129.625 47.86C130.033 47.476 130.561 46.864 131.209 46.024C131.329 45.832 131.581 45.736 131.965 45.736C132.373 45.736 132.865 45.88 133.441 46.168C134.041 46.432 134.677 46.816 135.349 47.32C133.789 50.68 131.041 52.36 127.105 52.36C124.081 52.36 121.705 51.448 119.977 49.624C118.249 47.776 117.385 45.256 117.385 42.064C117.385 39.976 117.769 38.164 118.537 36.628C119.329 35.092 120.445 33.916 121.885 33.1C123.349 32.26 125.077 31.84 127.069 31.84C129.829 31.84 131.965 32.62 133.477 34.18C134.989 35.74 135.745 37.948 135.745 40.804ZM130.345 40.048C130.345 36.832 129.217 35.224 126.961 35.224C125.809 35.224 124.885 35.632 124.189 36.448C123.493 37.264 123.061 38.464 122.893 40.048H130.345ZM145.648 52.36C143.296 52.36 141.436 52 140.068 51.28C138.724 50.56 138.052 49.636 138.052 48.508C138.052 47.836 138.28 47.272 138.736 46.816C139.216 46.336 139.9 46.072 140.788 46.024C141.292 46.984 141.94 47.704 142.732 48.184C143.548 48.664 144.568 48.904 145.792 48.904C147.904 48.904 148.96 48.112 148.96 46.528C148.96 45.88 148.66 45.388 148.06 45.052C147.46 44.716 146.476 44.32 145.108 43.864C143.716 43.408 142.564 42.964 141.652 42.532C140.764 42.1 139.996 41.476 139.348 40.66C138.7 39.82 138.376 38.74 138.376 37.42C138.376 36.292 138.724 35.308 139.42 34.468C140.14 33.604 141.076 32.956 142.228 32.524C143.404 32.068 144.676 31.84 146.044 31.84C147.796 31.84 149.332 32.176 150.652 32.848C151.972 33.52 153.004 34.42 153.748 35.548C153.436 36.148 153.004 36.676 152.452 37.132C151.924 37.564 151.444 37.78 151.012 37.78C150.772 37.78 150.568 37.744 150.4 37.672C150.232 37.576 150.064 37.432 149.896 37.24C148.816 35.896 147.58 35.224 146.188 35.224C145.276 35.224 144.568 35.404 144.064 35.764C143.584 36.1 143.344 36.616 143.344 37.312C143.344 38.056 143.668 38.62 144.316 39.004C144.988 39.388 146.032 39.784 147.448 40.192C148.792 40.552 149.896 40.936 150.76 41.344C151.648 41.728 152.392 42.316 152.992 43.108C153.616 43.876 153.928 44.896 153.928 46.168C153.928 48.16 153.208 49.696 151.768 50.776C150.352 51.832 148.312 52.36 145.648 52.36ZM166.02 52.36C159.396 52.36 156.084 48.904 156.084 41.992C156.084 38.824 156.936 36.34 158.64 34.54C160.344 32.74 162.696 31.84 165.696 31.84C168.048 31.84 169.98 32.428 171.492 33.604C173.028 34.756 173.928 36.328 174.192 38.32C172.8 39.16 171.648 39.58 170.736 39.58C170.352 39.58 170.028 39.46 169.764 39.22C169.524 38.98 169.32 38.596 169.152 38.068C168.792 37.06 168.348 36.352 167.82 35.944C167.292 35.512 166.584 35.296 165.696 35.296C164.352 35.296 163.308 35.872 162.564 37.024C161.844 38.176 161.484 39.832 161.484 41.992C161.484 44.32 161.844 46.036 162.564 47.14C163.308 48.22 164.46 48.76 166.02 48.76C167.1 48.76 167.952 48.4 168.576 47.68C169.2 46.936 169.668 45.76 169.98 44.152C171.3 44.152 172.248 44.392 172.824 44.872C173.4 45.352 173.688 46.132 173.688 47.212C173.688 48.124 173.328 48.976 172.608 49.768C171.912 50.56 170.976 51.196 169.8 51.676C168.624 52.132 167.364 52.36 166.02 52.36ZM186.005 52.36C183.101 52.36 180.845 51.46 179.237 49.66C177.653 47.86 176.861 45.328 176.861 42.064C176.861 38.8 177.653 36.28 179.237 34.504C180.845 32.728 183.101 31.84 186.005 31.84C188.909 31.84 191.153 32.728 192.737 34.504C194.345 36.28 195.149 38.8 195.149 42.064C195.149 45.328 194.345 47.86 192.737 49.66C191.153 51.46 188.909 52.36 186.005 52.36ZM186.005 48.904C187.325 48.904 188.273 48.364 188.849 47.284C189.449 46.204 189.749 44.464 189.749 42.064C189.749 39.688 189.449 37.972 188.849 36.916C188.273 35.836 187.325 35.296 186.005 35.296C184.685 35.296 183.725 35.824 183.125 36.88C182.549 37.936 182.261 39.664 182.261 42.064C182.261 44.464 182.549 46.204 183.125 47.284C183.725 48.364 184.685 48.904 186.005 48.904Z" fill="#5C5C5C"/>
<g clip-path="url(#clip0_0_135)">
<path d="M64 32C64 49.6713 49.6713 63.994 32 63.994C25.0992 63.994 18.7076 61.8076 13.4781 58.0936C12.6215 57.4826 11.7948 56.8297 10.9981 56.1408C4.25908 50.2763 0 41.6323 0 32C0 14.3227 14.3287 0 32 0C49.6713 0 64 14.3227 64 32Z" fill="#5C5C5C"/>
<path d="M36.343 28.304C36.2172 28.0285 35.9536 27.7948 35.5643 27.6031C35.1689 27.4115 34.7017 27.2797 34.1566 27.2078C33.6115 27.1359 33.1023 27.1958 32.6231 27.3875C32.4433 27.4534 32.1558 27.675 31.7485 28.0464C31.3351 28.4238 30.8439 28.921 30.2689 29.538C29.6938 30.155 29.0349 30.8738 28.2981 31.7005C27.5613 32.5212 26.7885 33.4197 25.9739 34.3841C25.1532 35.3545 24.3086 36.3849 23.44 37.4751C22.5654 38.5593 21.6908 39.6735 20.8103 40.8117C19.6422 41.0633 18.474 41.3568 17.3179 41.6743C16.1558 41.9918 15.0536 42.3392 14.0173 42.7046C12.975 43.076 12.0285 43.4594 11.1719 43.8607C10.3153 44.2621 9.62044 44.6754 9.09329 45.1067C8.85368 45.2984 8.63803 45.538 8.44635 45.8255C8.25466 46.1131 8.11089 46.4066 8.01505 46.6941C7.9192 46.9817 7.88326 47.2512 7.90722 47.5088C7.93118 47.7664 8.03901 47.9581 8.2307 48.0839C8.42238 48.2097 8.70393 48.2576 9.08131 48.2276C9.4587 48.1977 9.9499 48.0299 10.5549 47.7244C11.2917 47.359 12.2921 46.9337 13.5441 46.4605C14.802 45.9933 16.1858 45.508 17.6893 45.0109C16.8746 46.149 16.0899 47.2632 15.3471 48.3594C14.6043 49.4556 13.9334 50.5039 13.3404 51.4923C12.7533 52.4867 12.2382 53.4092 11.8069 54.2658C11.4594 54.9547 11.1899 55.5777 10.9982 56.1408C11.7949 56.8297 12.6216 57.4826 13.4782 58.0936C13.5021 58.0457 13.5141 57.9978 13.5321 57.9498C13.7777 57.231 14.203 56.3325 14.82 55.2602C15.437 54.1939 16.1798 53.0139 17.0544 51.7319C17.9229 50.456 18.8934 49.1022 19.9596 47.6885C21.0199 46.2688 22.1221 44.8431 23.2603 43.4055C24.7638 43.0161 26.1596 42.7286 27.4475 42.5249C28.7354 42.3272 29.7717 42.2673 30.5564 42.3452C30.9578 42.3931 31.2513 42.2913 31.431 42.0337C31.6167 41.7761 31.6886 41.4826 31.6347 41.1471C31.5867 40.8117 31.419 40.4882 31.1195 40.1827C30.826 39.8832 30.3887 39.7155 29.8136 39.6795C28.8672 39.6316 27.6212 39.7035 26.0697 39.8952C27.2019 38.5054 28.3101 37.1876 29.3943 35.9476C30.4726 34.7076 31.455 33.5994 32.3475 32.623C33.2341 31.6466 33.9948 30.8439 34.6238 30.2089C35.2588 29.5799 35.7021 29.1906 35.9596 29.0468C36.343 28.8192 36.4688 28.5736 36.343 28.304ZM60.328 24.0749C60.2621 23.8053 60.1064 23.5058 59.8608 23.1763C59.6092 22.8469 59.3097 22.5474 58.9503 22.2718C58.5849 22.0022 58.2494 21.8585 57.9259 21.8405C56.2606 21.7806 54.4156 21.7566 52.379 21.7806C50.3483 21.8046 48.2097 21.8824 45.9694 22.0082C43.729 22.14 41.4168 22.3197 39.0326 22.5534C36.6485 22.781 34.2704 23.0805 31.9042 23.4399C29.5321 23.7993 27.2019 24.2186 24.9136 24.6979C22.6253 25.1771 20.4508 25.7342 18.3842 26.3572C16.3176 26.9802 14.4126 27.681 12.6575 28.4538C10.9083 29.2325 9.38083 30.0891 8.08693 31.0236C6.78704 31.9641 5.75073 32.9824 4.97798 34.0846C4.19925 35.1928 3.76196 36.3849 3.66611 37.6668C3.61819 38.3377 3.72003 38.9547 3.96563 39.5118C4.21722 40.0749 4.54069 40.5361 4.95402 40.9075C5.36136 41.2729 5.82261 41.5365 6.33178 41.6863C6.84694 41.836 7.33815 41.848 7.82336 41.7222C8.38045 41.5605 8.67398 41.3448 8.69794 41.0633C8.7219 40.7817 8.54219 40.5481 8.15881 40.3504C7.96712 40.2546 7.78142 40.1228 7.60172 39.9431C7.428 39.7694 7.29022 39.5597 7.19438 39.3081C7.09854 39.0625 7.05061 38.793 7.05061 38.5054C7.05061 38.2179 7.13448 37.9124 7.29022 37.5949C7.96712 36.277 9.07532 35.0371 10.6208 33.869C12.1603 32.7009 14.0952 31.6286 16.4134 30.6522C18.7376 29.6758 21.4213 28.8072 24.4703 28.0344C27.5194 27.2677 30.8919 26.6148 34.5759 26.0816C38.2659 25.5425 42.2434 25.1411 46.5085 24.8656C50.7736 24.596 55.2842 24.4702 60.0405 24.4822C60.2981 24.4822 60.3939 24.3504 60.328 24.0749Z" fill="white"/>
</g>
<defs>
<clipPath id="clip0_0_135">
<rect width="64" height="63.994" fill="white"/>
</clipPath>
</defs>
</svg>
