<svg width="32" height="32" viewBox="0 0 32 32" fill="none" xmlns="http://www.w3.org/2000/svg">
<path d="M0.000244141 0H16.0002C24.8368 0 32.0002 7.16344 32.0002 16C32.0002 24.8366 24.8368 32 16.0002 32H0.000244141V0Z" fill="#1A47E6"/>
<mask id="mask0_0_404" style="mask-type:alpha" maskUnits="userSpaceOnUse" x="0" y="0" width="32" height="32">
<path d="M0 0L16 0C24.8366 0 32 7.16344 32 16C32 24.8366 24.8366 32 16 32H0L0 0Z" fill="#2148D1"/>
</mask>
<g mask="url(#mask0_0_404)">
<path fill-rule="evenodd" clip-rule="evenodd" d="M46.6036 6.20279C47.0439 6.53617 47.1306 7.16338 46.7973 7.60369L40.1835 16.3388C37.7827 19.5097 33.0173 19.5097 30.6164 16.3388L27.989 12.8686C26.3885 10.7547 23.2115 10.7547 21.611 12.8686L18.9835 16.3388C16.5827 19.5097 11.8173 19.5097 9.41644 16.3388L6.78903 12.8686C5.18848 10.7547 2.01151 10.7547 0.41096 12.8686L-6.20275 21.6037C-6.53613 22.044 -7.16333 22.1307 -7.60364 21.7973C-8.04396 21.4639 -8.13064 20.8367 -7.79726 20.3964L-1.18356 11.6613C1.21726 8.49044 5.98273 8.49044 8.38355 11.6613L11.011 15.1315C12.6115 17.2454 15.7885 17.2454 17.389 15.1315L20.0164 11.6613C22.4173 8.49044 27.1827 8.49044 29.5835 11.6613L32.211 15.1315C33.8115 17.2454 36.9885 17.2454 38.589 15.1315L45.2027 6.39641C45.5361 5.9561 46.1633 5.86941 46.6036 6.20279Z" fill="white"/>
<path fill-rule="evenodd" clip-rule="evenodd" d="M46.6036 -4.79721C47.0439 -4.46383 47.1306 -3.83662 46.7973 -3.39631L40.1835 5.33878C37.7827 8.50967 33.0173 8.50967 30.6164 5.33878L27.989 1.86861C26.3885 -0.245323 23.2115 -0.245322 21.611 1.86861L18.9835 5.33878C16.5827 8.50967 11.8173 8.50967 9.41644 5.33878L6.78903 1.86861C5.18848 -0.245321 2.01151 -0.24532 0.41096 1.86861L-6.20275 10.6037C-6.53613 11.044 -7.16333 11.1307 -7.60364 10.7973C-8.04396 10.4639 -8.13064 9.83673 -7.79726 9.39642L-1.18356 0.661333C1.21726 -2.50956 5.98273 -2.50956 8.38355 0.661331L11.011 4.1315C12.6115 6.24543 15.7885 6.24543 17.389 4.1315L20.0164 0.661332C22.4173 -2.50956 27.1827 -2.50956 29.5835 0.661329L32.211 4.1315C33.8115 6.24543 36.9885 6.24543 38.589 4.1315L45.2027 -4.60359C45.5361 -5.0439 46.1633 -5.13059 46.6036 -4.79721Z" fill="white"/>
<path fill-rule="evenodd" clip-rule="evenodd" d="M46.6036 17.2028C47.0439 17.5362 47.1306 18.1634 46.7973 18.6037L40.1835 27.3388C37.7827 30.5097 33.0173 30.5097 30.6164 27.3388L27.989 23.8686C26.3885 21.7547 23.2115 21.7547 21.611 23.8686L18.9835 27.3388C16.5827 30.5097 11.8173 30.5097 9.41644 27.3388L6.78903 23.8686C5.18848 21.7547 2.01151 21.7547 0.41096 23.8686L-6.20275 32.6037C-6.53613 33.044 -7.16333 33.1307 -7.60364 32.7973C-8.04396 32.4639 -8.13064 31.8367 -7.79726 31.3964L-1.18356 22.6613C1.21726 19.4904 5.98273 19.4904 8.38355 22.6613L11.011 26.1315C12.6115 28.2454 15.7885 28.2454 17.389 26.1315L20.0164 22.6613C22.4173 19.4904 27.1827 19.4904 29.5835 22.6613L32.211 26.1315C33.8115 28.2454 36.9885 28.2454 38.589 26.1315L45.2027 17.3964C45.5361 16.9561 46.1633 16.8694 46.6036 17.2028Z" fill="white"/>
</g>
</svg>
