<svg width="40" height="40" viewBox="0 0 40 40" fill="none" xmlns="http://www.w3.org/2000/svg">
<circle cx="20" cy="20" r="20" fill="#1A47E6"/>
<path d="M21.0703 17.875C21.7839 18.0365 22.362 18.3516 22.8047 18.8203C23.2526 19.2839 23.4766 19.8854 23.4766 20.625C23.4766 21.3594 23.2969 21.9974 22.9375 22.5391C22.5781 23.0755 22.0677 23.4922 21.4062 23.7891C20.75 24.0859 19.974 24.2344 19.0781 24.2344C18.1823 24.2344 17.3802 24.0729 16.6719 23.75C15.9635 23.4271 15.3073 22.9245 14.7031 22.2422L16.3438 20.7109C16.6042 20.9922 16.8542 21.2396 17.0938 21.4531C17.3333 21.6615 17.6016 21.8255 17.8984 21.9453C18.2005 22.0651 18.5703 22.125 19.0078 22.125C19.612 22.125 20.1042 21.9792 20.4844 21.6875C20.8646 21.3958 21.0547 21.0026 21.0547 20.5078C21.0547 19.9661 20.8151 19.5625 20.3359 19.2969C19.8568 19.026 19.2057 18.8906 18.3828 18.8906H17.3984V16.9375H18.6719C19.3542 16.9375 19.8359 16.7839 20.1172 16.4766C20.4036 16.1693 20.5469 15.8333 20.5469 15.4688C20.5469 15.151 20.4635 14.8984 20.2969 14.7109C20.1354 14.5182 19.9297 14.3802 19.6797 14.2969C19.4349 14.2083 19.1875 14.1641 18.9375 14.1641C18.0938 14.1641 17.3307 14.5781 16.6484 15.4062L15.1406 14C15.6979 13.3281 16.2969 12.8359 16.9375 12.5234C17.5833 12.2057 18.3151 12.0469 19.1328 12.0469C19.5964 12.0469 20.0547 12.1198 20.5078 12.2656C20.9661 12.4062 21.3802 12.6146 21.75 12.8906C22.1198 13.1615 22.4141 13.4948 22.6328 13.8906C22.8568 14.2865 22.9688 14.737 22.9688 15.2422C22.9688 15.8724 22.7943 16.4036 22.4453 16.8359C22.1016 17.2682 21.6432 17.5781 21.0703 17.7656V17.875Z" fill="white"/>
</svg>
