<svg width="40" height="40" viewBox="0 0 40 40" fill="none" xmlns="http://www.w3.org/2000/svg">
<circle cx="20" cy="20" r="20" fill="#1A47E6"/>
<path d="M15.0156 14.7266C16.0312 12.9349 17.4531 12.0391 19.2812 12.0391C20.0417 12.0391 20.7083 12.1901 21.2812 12.4922C21.8594 12.7891 22.3099 13.2031 22.6328 13.7344C22.9557 14.2604 23.1172 14.8646 23.1172 15.5469C23.1172 16.4948 22.7812 17.5026 22.1094 18.5703C21.4427 19.6328 20.4245 20.7396 19.0547 21.8906H23.5312V24H15.5V22.4609C16.5365 21.612 17.4505 20.7578 18.2422 19.8984C19.0339 19.0339 19.6536 18.2266 20.1016 17.4766C20.5495 16.7214 20.7734 16.0885 20.7734 15.5781C20.7734 15.1615 20.6276 14.8203 20.3359 14.5547C20.0495 14.2839 19.6797 14.1484 19.2266 14.1484C18.7786 14.1484 18.3542 14.2969 17.9531 14.5938C17.5521 14.8906 17.1432 15.3568 16.7266 15.9922L15.0156 14.7266Z" fill="white"/>
</svg>
