<svg width="181" height="44" viewBox="0 0 181 44" fill="none" xmlns="http://www.w3.org/2000/svg">
<path d="M38.2452 17.1763L27.0925 10.6982L34.5063 6.42176L36.7284 5.13408L45.6269 0L63.9617 10.6598L64 23.5597L45.6589 12.8998L38.2516 17.1763H38.2452Z" fill="#5C5C5C"/>
<path d="M35.319 27.1947L45.4349 21.3554L45.4733 34.2565L35.3574 40.0946L0 19.5506V6.66992L35.319 27.1947Z" fill="#5C5C5C"/>
<path d="M78.2852 35V8.63281H83.3477V19.127C84.7422 17.7559 86.4766 17.0703 88.5508 17.0703C93.0742 17.0703 95.3359 19.918 95.3359 25.6133V35H90.2734V25.5781C90.2734 24.2539 89.9922 23.2402 89.4297 22.5371C88.8789 21.8223 88.0879 21.4648 87.0566 21.4648C85.9551 21.4648 85.0586 21.8516 84.3672 22.625C83.6875 23.3867 83.3477 24.377 83.3477 25.5957V35H78.2852ZM96.5242 26.2109C96.5242 24.4531 96.9285 22.8887 97.7371 21.5176C98.5574 20.1348 99.6707 19.0508 101.077 18.2656C102.495 17.4688 104.106 17.0703 105.911 17.0703C107.716 17.0703 109.321 17.4688 110.727 18.2656C112.134 19.0508 113.241 20.1348 114.05 21.5176C114.87 22.8887 115.28 24.4531 115.28 26.2109C115.28 27.9688 114.87 29.5391 114.05 30.9219C113.241 32.293 112.134 33.377 110.727 34.1738C109.321 34.959 107.716 35.3516 105.911 35.3516C104.106 35.3516 102.495 34.959 101.077 34.1738C99.6707 33.377 98.5574 32.293 97.7371 30.9219C96.9285 29.5391 96.5242 27.9688 96.5242 26.2109ZM101.446 26.2109C101.446 27.5703 101.868 28.7012 102.712 29.6035C103.555 30.5059 104.622 30.957 105.911 30.957C107.2 30.957 108.266 30.5059 109.11 29.6035C109.954 28.7012 110.376 27.5703 110.376 26.2109C110.376 24.8516 109.954 23.7207 109.11 22.8184C108.266 21.916 107.2 21.4648 105.911 21.4648C104.622 21.4648 103.555 21.916 102.712 22.8184C101.868 23.7207 101.446 24.8516 101.446 26.2109ZM121.9 7.92969V35H116.838V7.92969H121.9ZM129.733 7.92969V35H124.67V7.92969H129.733ZM131.273 26.2109C131.273 24.4531 131.677 22.8887 132.486 21.5176C133.306 20.1348 134.419 19.0508 135.825 18.2656C137.243 17.4688 138.855 17.0703 140.659 17.0703C142.464 17.0703 144.07 17.4688 145.476 18.2656C146.882 19.0508 147.989 20.1348 148.798 21.5176C149.618 22.8887 150.029 24.4531 150.029 26.2109C150.029 27.9688 149.618 29.5391 148.798 30.9219C147.989 32.293 146.882 33.377 145.476 34.1738C144.07 34.959 142.464 35.3516 140.659 35.3516C138.855 35.3516 137.243 34.959 135.825 34.1738C134.419 33.377 133.306 32.293 132.486 30.9219C131.677 29.5391 131.273 27.9688 131.273 26.2109ZM136.195 26.2109C136.195 27.5703 136.616 28.7012 137.46 29.6035C138.304 30.5059 139.37 30.957 140.659 30.957C141.948 30.957 143.015 30.5059 143.859 29.6035C144.702 28.7012 145.124 27.5703 145.124 26.2109C145.124 24.8516 144.702 23.7207 143.859 22.8184C143.015 21.916 141.948 21.4648 140.659 21.4648C139.37 21.4648 138.304 21.916 137.46 22.8184C136.616 23.7207 136.195 24.8516 136.195 26.2109ZM149.828 17.4219H155.154L158.02 26.5449C158.16 27.002 158.289 27.4355 158.406 27.8457C158.535 28.2559 158.652 28.6484 158.758 29.0234C158.852 28.6484 158.951 28.2559 159.057 27.8457C159.174 27.4355 159.297 27.002 159.426 26.5449L162.291 17.4219H167.336L170.201 26.5449C170.342 27.002 170.471 27.4355 170.588 27.8457C170.717 28.2559 170.834 28.6543 170.939 29.041C171.033 28.6543 171.133 28.2559 171.238 27.8457C171.355 27.4355 171.479 27.002 171.607 26.5449L174.473 17.4219H179.482L173.594 35H168.584C167.904 32.9375 167.254 30.9102 166.633 28.918C166.023 26.9258 165.449 24.916 164.91 22.8887C164.406 24.9395 163.826 26.9727 163.17 28.9883C162.514 31.0039 161.805 33.0078 161.043 35H155.717L149.828 17.4219Z" fill="#5C5C5C"/>
</svg>
