<svg width="121" height="32" viewBox="0 0 121 32" fill="none" xmlns="http://www.w3.org/2000/svg">
<path d="M53.291 20.0176H49.1426V6.83398H53.291C55.8809 6.83398 57.8701 7.4082 59.2588 8.55664C60.6475 9.69922 61.3418 11.3164 61.3418 13.4082C61.3418 15.5059 60.6475 17.1318 59.2588 18.2861C57.8701 19.4404 55.8809 20.0176 53.291 20.0176ZM53.3525 17.6445C55.0518 17.6445 56.3525 17.2754 57.2549 16.5371C58.1631 15.793 58.6172 14.75 58.6172 13.4082C58.6172 12.0723 58.1631 11.0381 57.2549 10.3057C56.3525 9.57324 55.0518 9.20703 53.3525 9.20703H51.832V17.6445H53.3525Z" fill="black"/>
<path d="M62.6426 8.22266C62.6426 7.80078 62.7715 7.46094 63.0293 7.20312C63.2871 6.94531 63.627 6.81641 64.0488 6.81641C64.4707 6.81641 64.8105 6.94531 65.0684 7.20312C65.3262 7.46094 65.4551 7.80078 65.4551 8.22266C65.4551 8.64453 65.3262 8.98438 65.0684 9.24219C64.8105 9.5 64.4707 9.62891 64.0488 9.62891C63.627 9.62891 63.2871 9.5 63.0293 9.24219C62.7715 8.98438 62.6426 8.64453 62.6426 8.22266ZM62.7832 20V11.2109H65.3145V20H62.7832Z" fill="black"/>
<path d="M71.124 11.0352C71.6982 11.0352 72.2285 11.1348 72.7148 11.334C73.207 11.5273 73.6377 11.8027 74.0068 12.1602L74.0684 11.2109H76.459V18.9717C76.459 20.0967 76.2451 21.0781 75.8174 21.916C75.3955 22.7539 74.8008 23.4043 74.0332 23.8672C73.2715 24.3359 72.375 24.5703 71.3438 24.5703C70.7754 24.5703 70.1719 24.4912 69.5332 24.333C68.8945 24.1748 68.2412 23.9287 67.5732 23.5947L68.3379 21.4941C68.6309 21.7402 69.041 21.9482 69.5684 22.1182C70.0957 22.2939 70.6025 22.3818 71.0889 22.3818C71.9619 22.3818 72.6533 22.0889 73.1631 21.5029C73.6729 20.9229 73.9277 20.1377 73.9277 19.1475V19.1299C73.5586 19.458 73.1367 19.7158 72.6621 19.9033C72.1875 20.085 71.6748 20.1758 71.124 20.1758C70.3037 20.1758 69.5684 19.9795 68.918 19.5869C68.2734 19.1885 67.7666 18.6465 67.3975 17.9609C67.0283 17.2695 66.8438 16.4844 66.8438 15.6055C66.8438 14.7266 67.0283 13.9443 67.3975 13.2588C67.7666 12.5674 68.2734 12.0254 68.918 11.6328C69.5684 11.2344 70.3037 11.0352 71.124 11.0352ZM71.6953 17.9785C72.3398 17.9785 72.873 17.7529 73.2949 17.3018C73.7168 16.8506 73.9277 16.2852 73.9277 15.6055C73.9277 14.9258 73.7168 14.3604 73.2949 13.9092C72.873 13.458 72.3398 13.2324 71.6953 13.2324C71.0508 13.2324 70.5176 13.458 70.0957 13.9092C69.6738 14.3604 69.4629 14.9258 69.4629 15.6055C69.4629 16.2852 69.6738 16.8506 70.0957 17.3018C70.5176 17.7529 71.0508 17.9785 71.6953 17.9785Z" fill="black"/>
<path d="M78.4629 8.22266C78.4629 7.80078 78.5918 7.46094 78.8496 7.20312C79.1074 6.94531 79.4473 6.81641 79.8691 6.81641C80.291 6.81641 80.6309 6.94531 80.8887 7.20312C81.1465 7.46094 81.2754 7.80078 81.2754 8.22266C81.2754 8.64453 81.1465 8.98438 80.8887 9.24219C80.6309 9.5 80.291 9.62891 79.8691 9.62891C79.4473 9.62891 79.1074 9.5 78.8496 9.24219C78.5918 8.98438 78.4629 8.64453 78.4629 8.22266ZM78.6035 20V11.2109H81.1348V20H78.6035Z" fill="black"/>
<path d="M84.2021 11.2109V10.0244C84.2021 9.30957 84.3574 8.7002 84.668 8.19629C84.9785 7.69238 85.3887 7.30859 85.8984 7.04492C86.4082 6.77539 86.959 6.64062 87.5508 6.64062C87.9375 6.64062 88.3271 6.69922 88.7197 6.81641C89.1182 6.93359 89.5049 7.11523 89.8799 7.36133L88.9043 9.14551C88.7578 9.02246 88.6025 8.94043 88.4385 8.89941C88.2744 8.8584 88.125 8.83789 87.9902 8.83789C87.6152 8.83789 87.3105 8.96387 87.0762 9.21582C86.8477 9.46191 86.7334 9.8457 86.7334 10.3672V11.2109H88.8691V13.4082H86.7334V20H84.2021V13.4082H82.752V11.2109H84.2021Z" fill="black"/>
<path d="M93.8262 6.46484V20H91.2949V6.46484H93.8262Z" fill="black"/>
<path d="M95.4961 15.6055C95.4961 14.7266 95.6982 13.9443 96.1025 13.2588C96.5127 12.5674 97.0693 12.0254 97.7725 11.6328C98.4814 11.2344 99.2871 11.0352 100.189 11.0352C101.092 11.0352 101.895 11.2344 102.598 11.6328C103.301 12.0254 103.854 12.5674 104.259 13.2588C104.669 13.9443 104.874 14.7266 104.874 15.6055C104.874 16.4844 104.669 17.2695 104.259 17.9609C103.854 18.6465 103.301 19.1885 102.598 19.5869C101.895 19.9795 101.092 20.1758 100.189 20.1758C99.2871 20.1758 98.4814 19.9795 97.7725 19.5869C97.0693 19.1885 96.5127 18.6465 96.1025 17.9609C95.6982 17.2695 95.4961 16.4844 95.4961 15.6055ZM97.957 15.6055C97.957 16.2852 98.168 16.8506 98.5898 17.3018C99.0117 17.7529 99.5449 17.9785 100.189 17.9785C100.834 17.9785 101.367 17.7529 101.789 17.3018C102.211 16.8506 102.422 16.2852 102.422 15.6055C102.422 14.9258 102.211 14.3604 101.789 13.9092C101.367 13.458 100.834 13.2324 100.189 13.2324C99.5449 13.2324 99.0117 13.458 98.5898 13.9092C98.168 14.3604 97.957 14.9258 97.957 15.6055Z" fill="black"/>
<path d="M105.674 11.2109H108.337L109.77 15.7725C109.84 16.001 109.904 16.2178 109.963 16.4229C110.027 16.6279 110.086 16.8242 110.139 17.0117C110.186 16.8242 110.235 16.6279 110.288 16.4229C110.347 16.2178 110.408 16.001 110.473 15.7725L111.905 11.2109H114.428L115.86 15.7725C115.931 16.001 115.995 16.2178 116.054 16.4229C116.118 16.6279 116.177 16.8271 116.229 17.0205C116.276 16.8271 116.326 16.6279 116.379 16.4229C116.438 16.2178 116.499 16.001 116.563 15.7725L117.996 11.2109H120.501L117.557 20H115.052C114.712 18.9688 114.387 17.9551 114.076 16.959C113.771 15.9629 113.484 14.958 113.215 13.9443C112.963 14.9697 112.673 15.9863 112.345 16.9941C112.017 18.002 111.662 19.0039 111.281 20H108.618L105.674 11.2109Z" fill="black"/>
<path d="M0.000244141 0H16.0002C24.8368 0 32.0002 7.16344 32.0002 16C32.0002 24.8366 24.8368 32 16.0002 32H0.000244141V0Z" fill="#1A47E6"/>
<mask id="mask0_0_402" style="mask-type:alpha" maskUnits="userSpaceOnUse" x="0" y="0" width="32" height="32">
<path d="M0 0L16 0C24.8366 0 32 7.16344 32 16C32 24.8366 24.8366 32 16 32H0L0 0Z" fill="#2148D1"/>
</mask>
<g mask="url(#mask0_0_402)">
<path fill-rule="evenodd" clip-rule="evenodd" d="M46.6036 6.20279C47.0439 6.53617 47.1306 7.16338 46.7973 7.60369L40.1835 16.3388C37.7827 19.5097 33.0173 19.5097 30.6164 16.3388L27.989 12.8686C26.3885 10.7547 23.2115 10.7547 21.611 12.8686L18.9835 16.3388C16.5827 19.5097 11.8173 19.5097 9.41644 16.3388L6.78903 12.8686C5.18848 10.7547 2.01151 10.7547 0.41096 12.8686L-6.20275 21.6037C-6.53613 22.044 -7.16333 22.1307 -7.60364 21.7973C-8.04396 21.4639 -8.13064 20.8367 -7.79726 20.3964L-1.18356 11.6613C1.21726 8.49044 5.98273 8.49044 8.38355 11.6613L11.011 15.1315C12.6115 17.2454 15.7885 17.2454 17.389 15.1315L20.0164 11.6613C22.4173 8.49044 27.1827 8.49044 29.5835 11.6613L32.211 15.1315C33.8115 17.2454 36.9885 17.2454 38.589 15.1315L45.2027 6.39641C45.5361 5.9561 46.1633 5.86941 46.6036 6.20279Z" fill="white"/>
<path fill-rule="evenodd" clip-rule="evenodd" d="M46.6036 -4.79721C47.0439 -4.46383 47.1306 -3.83662 46.7973 -3.39631L40.1835 5.33878C37.7827 8.50967 33.0173 8.50967 30.6164 5.33878L27.989 1.86861C26.3885 -0.245323 23.2115 -0.245322 21.611 1.86861L18.9835 5.33878C16.5827 8.50967 11.8173 8.50967 9.41644 5.33878L6.78903 1.86861C5.18848 -0.245321 2.01151 -0.24532 0.41096 1.86861L-6.20275 10.6037C-6.53613 11.044 -7.16333 11.1307 -7.60364 10.7973C-8.04396 10.4639 -8.13064 9.83673 -7.79726 9.39642L-1.18356 0.661333C1.21726 -2.50956 5.98273 -2.50956 8.38355 0.661331L11.011 4.1315C12.6115 6.24543 15.7885 6.24543 17.389 4.1315L20.0164 0.661332C22.4173 -2.50956 27.1827 -2.50956 29.5835 0.661329L32.211 4.1315C33.8115 6.24543 36.9885 6.24543 38.589 4.1315L45.2027 -4.60359C45.5361 -5.0439 46.1633 -5.13059 46.6036 -4.79721Z" fill="white"/>
<path fill-rule="evenodd" clip-rule="evenodd" d="M46.6036 17.2028C47.0439 17.5362 47.1306 18.1634 46.7973 18.6037L40.1835 27.3388C37.7827 30.5097 33.0173 30.5097 30.6164 27.3388L27.989 23.8686C26.3885 21.7547 23.2115 21.7547 21.611 23.8686L18.9835 27.3388C16.5827 30.5097 11.8173 30.5097 9.41644 27.3388L6.78903 23.8686C5.18848 21.7547 2.01151 21.7547 0.41096 23.8686L-6.20275 32.6037C-6.53613 33.044 -7.16333 33.1307 -7.60364 32.7973C-8.04396 32.4639 -8.13064 31.8367 -7.79726 31.3964L-1.18356 22.6613C1.21726 19.4904 5.98273 19.4904 8.38355 22.6613L11.011 26.1315C12.6115 28.2454 15.7885 28.2454 17.389 26.1315L20.0164 22.6613C22.4173 19.4904 27.1827 19.4904 29.5835 22.6613L32.211 26.1315C33.8115 28.2454 36.9885 28.2454 38.589 26.1315L45.2027 17.3964C45.5361 16.9561 46.1633 16.8694 46.6036 17.2028Z" fill="white"/>
</g>
</svg>
