<svg width="214" height="44" viewBox="0 0 214 44" fill="none" xmlns="http://www.w3.org/2000/svg">
<path d="M78.582 33.0352H70.2852V6.66797H78.582C83.7617 6.66797 87.7402 7.81641 90.5176 10.1133C93.2949 12.3984 94.6836 15.6328 94.6836 19.8164C94.6836 24.0117 93.2949 27.2637 90.5176 29.5723C87.7402 31.8809 83.7617 33.0352 78.582 33.0352ZM78.7051 28.2891C82.1035 28.2891 84.7051 27.5508 86.5098 26.0742C88.3262 24.5859 89.2344 22.5 89.2344 19.8164C89.2344 17.1445 88.3262 15.0762 86.5098 13.6113C84.7051 12.1465 82.1035 11.4141 78.7051 11.4141H75.6641V28.2891H78.7051Z" fill="white"/>
<path d="M97.2852 9.44531C97.2852 8.60156 97.543 7.92188 98.0586 7.40625C98.5742 6.89062 99.2539 6.63281 100.098 6.63281C100.941 6.63281 101.621 6.89062 102.137 7.40625C102.652 7.92188 102.91 8.60156 102.91 9.44531C102.91 10.2891 102.652 10.9688 102.137 11.4844C101.621 12 100.941 12.2578 100.098 12.2578C99.2539 12.2578 98.5742 12 98.0586 11.4844C97.543 10.9688 97.2852 10.2891 97.2852 9.44531ZM97.5664 33V15.4219H102.629V33H97.5664Z" fill="white"/>
<path d="M114.248 15.0703C115.396 15.0703 116.457 15.2695 117.43 15.668C118.414 16.0547 119.275 16.6055 120.014 17.3203L120.137 15.4219H124.918V30.9434C124.918 33.1934 124.49 35.1562 123.635 36.832C122.791 38.5078 121.602 39.8086 120.066 40.7344C118.543 41.6719 116.75 42.1406 114.688 42.1406C113.551 42.1406 112.344 41.9824 111.066 41.666C109.789 41.3496 108.482 40.8574 107.146 40.1895L108.676 35.9883C109.262 36.4805 110.082 36.8965 111.137 37.2363C112.191 37.5879 113.205 37.7637 114.178 37.7637C115.924 37.7637 117.307 37.1777 118.326 36.0059C119.346 34.8457 119.855 33.2754 119.855 31.2949V31.2598C119.117 31.916 118.273 32.4316 117.324 32.8066C116.375 33.1699 115.35 33.3516 114.248 33.3516C112.607 33.3516 111.137 32.959 109.836 32.1738C108.547 31.377 107.533 30.293 106.795 28.9219C106.057 27.5391 105.688 25.9688 105.688 24.2109C105.688 22.4531 106.057 20.8887 106.795 19.5176C107.533 18.1348 108.547 17.0508 109.836 16.2656C111.137 15.4688 112.607 15.0703 114.248 15.0703ZM115.391 28.957C116.68 28.957 117.746 28.5059 118.59 27.6035C119.434 26.7012 119.855 25.5703 119.855 24.2109C119.855 22.8516 119.434 21.7207 118.59 20.8184C117.746 19.916 116.68 19.4648 115.391 19.4648C114.102 19.4648 113.035 19.916 112.191 20.8184C111.348 21.7207 110.926 22.8516 110.926 24.2109C110.926 25.5703 111.348 26.7012 112.191 27.6035C113.035 28.5059 114.102 28.957 115.391 28.957Z" fill="white"/>
<path d="M128.926 9.44531C128.926 8.60156 129.184 7.92188 129.699 7.40625C130.215 6.89062 130.895 6.63281 131.738 6.63281C132.582 6.63281 133.262 6.89062 133.777 7.40625C134.293 7.92188 134.551 8.60156 134.551 9.44531C134.551 10.2891 134.293 10.9688 133.777 11.4844C133.262 12 132.582 12.2578 131.738 12.2578C130.895 12.2578 130.215 12 129.699 11.4844C129.184 10.9688 128.926 10.2891 128.926 9.44531ZM129.207 33V15.4219H134.27V33H129.207Z" fill="white"/>
<path d="M140.404 15.4219V13.0488C140.404 11.6191 140.715 10.4004 141.336 9.39258C141.957 8.38477 142.777 7.61719 143.797 7.08984C144.816 6.55078 145.918 6.28125 147.102 6.28125C147.875 6.28125 148.654 6.39844 149.439 6.63281C150.236 6.86719 151.01 7.23047 151.76 7.72266L149.809 11.291C149.516 11.0449 149.205 10.8809 148.877 10.7988C148.549 10.7168 148.25 10.6758 147.98 10.6758C147.23 10.6758 146.621 10.9277 146.152 11.4316C145.695 11.9238 145.467 12.6914 145.467 13.7344V15.4219H149.738V19.8164H145.467V33H140.404V19.8164H137.504V15.4219H140.404Z" fill="white"/>
<path d="M159.652 5.92969V33H154.59V5.92969H159.652Z" fill="white"/>
<path d="M162.992 24.2109C162.992 22.4531 163.396 20.8887 164.205 19.5176C165.025 18.1348 166.139 17.0508 167.545 16.2656C168.963 15.4688 170.574 15.0703 172.379 15.0703C174.184 15.0703 175.789 15.4688 177.195 16.2656C178.602 17.0508 179.709 18.1348 180.518 19.5176C181.338 20.8887 181.748 22.4531 181.748 24.2109C181.748 25.9688 181.338 27.5391 180.518 28.9219C179.709 30.293 178.602 31.377 177.195 32.1738C175.789 32.959 174.184 33.3516 172.379 33.3516C170.574 33.3516 168.963 32.959 167.545 32.1738C166.139 31.377 165.025 30.293 164.205 28.9219C163.396 27.5391 162.992 25.9688 162.992 24.2109ZM167.914 24.2109C167.914 25.5703 168.336 26.7012 169.18 27.6035C170.023 28.5059 171.09 28.957 172.379 28.957C173.668 28.957 174.734 28.5059 175.578 27.6035C176.422 26.7012 176.844 25.5703 176.844 24.2109C176.844 22.8516 176.422 21.7207 175.578 20.8184C174.734 19.916 173.668 19.4648 172.379 19.4648C171.09 19.4648 170.023 19.916 169.18 20.8184C168.336 21.7207 167.914 22.8516 167.914 24.2109Z" fill="white"/>
<path d="M183.348 15.4219H188.674L191.539 24.5449C191.68 25.002 191.809 25.4355 191.926 25.8457C192.055 26.2559 192.172 26.6484 192.277 27.0234C192.371 26.6484 192.471 26.2559 192.576 25.8457C192.693 25.4355 192.816 25.002 192.945 24.5449L195.811 15.4219H200.855L203.721 24.5449C203.861 25.002 203.99 25.4355 204.107 25.8457C204.236 26.2559 204.354 26.6543 204.459 27.041C204.553 26.6543 204.652 26.2559 204.758 25.8457C204.875 25.4355 204.998 25.002 205.127 24.5449L207.992 15.4219H213.002L207.113 33H202.104C201.424 30.9375 200.773 28.9102 200.152 26.918C199.543 24.9258 198.969 22.916 198.43 20.8887C197.926 22.9395 197.346 24.9727 196.689 26.9883C196.033 29.0039 195.324 31.0078 194.562 33H189.236L183.348 15.4219Z" fill="white"/>
<path d="M0.000244141 0H23.3722C34.4179 0 43.3721 8.95431 43.3721 20V24C43.3721 35.0457 34.4178 44 23.3721 44H0.000244141V0Z" fill="white"/>
<mask id="mask0_0_587" style="mask-type:alpha" maskUnits="userSpaceOnUse" x="0" y="0" width="44" height="44">
<path d="M0 0L23.3719 0C34.4176 0 43.3719 8.95431 43.3719 20L43.3719 24C43.3719 35.0457 34.4176 44 23.3719 44L0 44L0 0Z" fill="#2148D1"/>
</mask>
<g mask="url(#mask0_0_587)">
<path fill-rule="evenodd" clip-rule="evenodd" d="M62.9455 8.82389C63.3881 9.15422 63.4791 9.78081 63.1488 10.2234L52.7889 24.1045C50.3894 27.3195 45.5715 27.3195 43.172 24.1045L36.8192 15.5924C35.2195 13.449 32.0076 13.449 30.4079 15.5924L24.055 24.1045C21.6555 27.3195 16.8376 27.3195 14.4381 24.1045L8.08527 15.5924C6.4856 13.449 3.27368 13.449 1.67401 15.5924L-8.6859 29.4734C-9.01623 29.916 -9.64282 30.007 -10.0854 29.6767C-10.528 29.3464 -10.619 28.7198 -10.2887 28.2772L0.0711952 14.3961C2.4707 11.1811 7.28858 11.1811 9.68808 14.3961L16.041 22.9082C17.6406 25.0516 20.8525 25.0516 22.4522 22.9082L28.8051 14.3961C31.2046 11.1811 36.0225 11.1811 38.422 14.3961L44.7748 22.9082C46.3745 25.0516 49.5864 25.0516 51.1861 22.9082L61.546 9.02718C61.8763 8.58458 62.5029 8.49356 62.9455 8.82389Z" fill="#1E2A54"/>
<path fill-rule="evenodd" clip-rule="evenodd" d="M62.9455 -6.30135C63.3881 -5.97102 63.4791 -5.34443 63.1488 -4.90183L52.7889 8.97922C50.3894 12.1943 45.5715 12.1943 43.172 8.97923L36.8192 0.467134C35.2195 -1.67624 32.0076 -1.67624 30.4079 0.467129L24.055 8.97922C21.6555 12.1943 16.8376 12.1943 14.4381 8.97923L8.08527 0.467137C6.4856 -1.67623 3.27368 -1.67624 1.67401 0.467131L-8.6859 14.3482C-9.01623 14.7908 -9.64282 14.8818 -10.0854 14.5515C-10.528 14.2211 -10.619 13.5946 -10.2887 13.1519L0.0711952 -0.729105C2.4707 -3.94416 7.28858 -3.94415 9.68808 -0.7291L16.041 7.78299C17.6406 9.92636 20.8525 9.92636 22.4522 7.78299L28.8051 -0.729108C31.2046 -3.94416 36.0225 -3.94415 38.422 -0.729103L44.7748 7.78299C46.3745 9.92636 49.5864 9.92636 51.1861 7.78298L61.546 -6.09806C61.8763 -6.54067 62.5029 -6.63169 62.9455 -6.30135Z" fill="#1E2A54"/>
<path fill-rule="evenodd" clip-rule="evenodd" d="M62.9455 23.9484C63.3881 24.2787 63.4791 24.9053 63.1488 25.3479L52.7889 39.229C50.3894 42.444 45.5715 42.444 43.172 39.229L36.8192 30.7169C35.2195 28.5735 32.0076 28.5735 30.4079 30.7169L24.055 39.229C21.6555 42.444 16.8376 42.444 14.4381 39.229L8.08527 30.7169C6.4856 28.5735 3.27368 28.5735 1.67401 30.7169L-8.6859 44.5979C-9.01623 45.0405 -9.64282 45.1316 -10.0854 44.8012C-10.528 44.4709 -10.619 43.8443 -10.2887 43.4017L0.0711952 29.5207C2.4707 26.3056 7.28858 26.3056 9.68808 29.5207L16.041 38.0327C17.6406 40.1761 20.8525 40.1761 22.4522 38.0327L28.8051 29.5206C31.2046 26.3056 36.0225 26.3056 38.422 29.5207L44.7748 38.0327C46.3745 40.1761 49.5864 40.1761 51.1861 38.0327L61.546 24.1517C61.8763 23.7091 62.5029 23.6181 62.9455 23.9484Z" fill="#1E2A54"/>
</g>
</svg>
