<svg width="154" height="64" viewBox="0 0 154 64" fill="none" xmlns="http://www.w3.org/2000/svg">
<path d="M87.628 55L82.876 34.768V55H78.52V29.8H85.684L90.508 50.428V29.8H94.792V55H87.628ZM99.8247 55V29.8H112.713V33.688H104.757V40.06H111.813V43.912H104.757V51.112H112.713V55H99.8247ZM131.704 37.432C131.704 39.424 131.404 40.996 130.804 42.148C130.204 43.276 129.364 44.116 128.284 44.668L132.784 55H127.204L123.388 45.496H121.948V55H117.016V29.8C117.712 29.752 118.444 29.692 119.212 29.62C119.86 29.572 120.568 29.536 121.336 29.512C122.128 29.464 122.896 29.44 123.64 29.44C125.2 29.44 126.496 29.608 127.528 29.944C128.56 30.256 129.388 30.748 130.012 31.42C130.636 32.092 131.068 32.932 131.308 33.94C131.572 34.924 131.704 36.088 131.704 37.432ZM126.7 37.684C126.7 36.268 126.532 35.26 126.196 34.66C125.86 34.06 125.176 33.76 124.144 33.76C123.568 33.76 123.064 33.796 122.632 33.868C122.368 33.916 122.14 33.952 121.948 33.976V41.248H124.216C124.96 41.248 125.56 40.948 126.016 40.348C126.472 39.748 126.7 38.86 126.7 37.684ZM146.984 42.292C146.984 40.444 146.924 38.944 146.804 37.792C146.684 36.616 146.492 35.704 146.228 35.056C145.964 34.384 145.616 33.928 145.184 33.688C144.752 33.448 144.212 33.328 143.564 33.328C142.916 33.328 142.376 33.448 141.944 33.688C141.512 33.928 141.164 34.384 140.9 35.056C140.636 35.704 140.444 36.616 140.324 37.792C140.204 38.944 140.144 40.444 140.144 42.292C140.144 44.116 140.204 45.616 140.324 46.792C140.444 47.968 140.636 48.904 140.9 49.6C141.164 50.296 141.512 50.788 141.944 51.076C142.376 51.34 142.916 51.472 143.564 51.472C144.212 51.472 144.752 51.34 145.184 51.076C145.616 50.788 145.964 50.296 146.228 49.6C146.492 48.904 146.684 47.968 146.804 46.792C146.924 45.616 146.984 44.116 146.984 42.292ZM151.988 42.112C151.988 44.32 151.88 46.252 151.664 47.908C151.472 49.564 151.064 50.944 150.44 52.048C149.84 53.152 148.988 53.98 147.884 54.532C146.78 55.084 145.34 55.36 143.564 55.36C141.788 55.36 140.348 55.084 139.244 54.532C138.14 53.98 137.276 53.152 136.652 52.048C136.052 50.944 135.644 49.564 135.428 47.908C135.236 46.252 135.14 44.32 135.14 42.112C135.14 40 135.248 38.152 135.464 36.568C135.704 34.984 136.136 33.664 136.76 32.608C137.384 31.552 138.236 30.76 139.316 30.232C140.42 29.704 141.836 29.44 143.564 29.44C145.292 29.44 146.696 29.704 147.776 30.232C148.88 30.76 149.744 31.552 150.368 32.608C150.992 33.664 151.412 34.984 151.628 36.568C151.868 38.152 151.988 40 151.988 42.112Z" fill="#5C5C5C"/>
<g clip-path="url(#clip0_0_110)">
<path d="M60.4486 30.0433C60.4486 34.5846 58.7172 39.1258 55.2509 42.5886L36.4366 61.4029C32.9739 64.8656 27.3576 64.8656 23.8913 61.4029L5.29696 42.8085C-1.66041 35.8512 -1.83071 24.2958 5.17988 17.3987C8.63195 13.9998 13.1271 12.304 17.6187 12.304C22.16 12.304 26.7012 14.0353 30.164 17.5016C37.093 10.5726 48.322 10.5726 55.2509 17.5016C58.7172 20.9679 60.4486 25.5056 60.4486 30.0433Z" fill="#5C5C5C"/>
<path opacity="0.11" d="M20.0312 57.5429C20.0312 57.5429 18.3886 54.5485 18.6156 51.4299C18.6156 51.4299 23.4798 65.2666 40.8927 57.0568L25.7646 49.8333L20.7479 40.8608L17.0049 42.585L15.7312 51.2028L16.416 54.0908L20.0312 57.5429Z" fill="black"/>
<path opacity="0.11" d="M22.2274 17.8847C22.2274 17.8847 24.679 22.7879 23.2527 27.8613C21.8265 32.9348 19.084 56.0172 37.1639 49.3011C37.1639 49.3011 25.3566 48.4141 27.8117 38.1501C30.2243 28.0919 29.3125 23.2952 22.2274 17.8847Z" fill="black"/>
<path d="M18.2609 56.8723C18.2609 56.8723 7.74151 49.2657 15.2594 39.5871C24.9771 27.0773 20.858 18.6831 20.858 18.6831C20.858 18.6831 28.2695 25.2076 26.1656 34.1979C24.3136 42.1167 26.6907 47.1796 30.6288 47.6975C35.3226 48.3184 40.8218 37.4229 32.1473 24.8315C23.4728 12.2401 30.1853 0 30.1853 0C30.1853 0 29.7773 10.8387 43.0676 25.2395C56.9114 40.2435 47.1938 59.9661 31.9486 58.5008C19.0379 57.2626 18.5483 44.6144 18.5483 44.6144C18.5483 44.6144 14.7663 51.1638 18.2609 56.8723Z" fill="white"/>
<path d="M31.9486 58.4972C19.0379 57.259 18.5447 44.618 18.5447 44.618C18.5447 44.618 14.7663 51.1638 18.2609 56.8688C18.2609 56.8688 17.3668 56.223 16.2812 55.0664C12.3431 46.4912 19.8113 38.356 19.8113 38.356C19.563 45.2353 24.6861 54.8678 34.4534 52.0366C44.6571 49.0776 43.4756 32.4452 35.0459 22.387C27.7337 13.6628 29.5964 3.47687 30.2243 0.929504C30.4549 3.83876 32.0692 13.3187 43.0641 25.2395C56.9078 40.2434 47.1902 59.966 31.9486 58.4972Z" fill="url(#paint0_linear_0_110)"/>
<path opacity="0.11" d="M47.0661 50.7736C48.0524 49.1416 48.7904 47.3215 49.2374 45.3808C49.2942 45.1289 49.3474 44.877 49.3935 44.6216C49.7802 42.5496 49.837 40.3535 49.5106 38.1077C49.4609 37.7777 49.4042 37.4442 49.3403 37.1143C49.2729 36.7843 49.2019 36.4508 49.1203 36.1173C49.0387 35.7838 48.9465 35.4503 48.8471 35.1168C48.7513 34.7833 48.6414 34.4498 48.5243 34.1163C48.5243 34.1128 48.5243 34.1128 48.5243 34.1128C48.3504 33.6125 48.1517 33.1123 47.9353 32.6085C47.7225 32.1082 47.4848 31.608 47.2258 31.1113C47.2258 31.1113 47.2222 31.1113 47.2222 31.1077C46.9668 30.6075 46.6865 30.1108 46.3849 29.6176C46.1827 29.2841 45.9734 28.9542 45.7498 28.6278C45.3099 27.9714 44.8309 27.3222 44.3094 26.68C43.9191 26.1939 43.504 25.715 43.0641 25.2396C42.5497 24.679 42.053 24.1291 41.5811 23.5792C41.4214 23.3982 41.2653 23.2137 41.1128 23.0328C40.1868 21.9471 39.3424 20.8828 38.569 19.8468C38.4377 19.673 38.31 19.5027 38.1858 19.3288C38.0616 19.1585 37.9374 18.9882 37.8168 18.8179C37.6962 18.6476 37.5756 18.4809 37.4585 18.3106C37.3414 18.1438 37.2279 17.9771 37.1108 17.8103C36.9973 17.6436 36.8873 17.4768 36.7773 17.3136C36.5573 16.9837 36.3444 16.6573 36.1387 16.3344C36.1316 16.3238 36.1245 16.3131 36.1174 16.3025C35.9187 15.9903 35.7271 15.6816 35.5426 15.3765C35.4468 15.2168 35.3546 15.0607 35.2623 14.9046C35.163 14.7343 35.0601 14.564 34.9643 14.3973C35.0104 14.2518 35.0317 14.1738 35.0779 14.0248C35.9152 13.6274 36.7737 13.2974 37.6501 13.0385C38.9166 15.6852 39.0692 17.7358 47.0909 25.754C53.7042 32.3672 53.8354 44.0042 47.0661 50.7736Z" fill="black"/>
</g>
<defs>
<linearGradient id="paint0_linear_0_110" x1="31.7065" y1="0.425636" x2="32.6924" y2="61.7476" gradientUnits="userSpaceOnUse">
<stop stop-color="#E0E0E0"/>
<stop offset="0.5705" stop-color="#E2E2E2" stop-opacity="0.4295"/>
<stop offset="0.776" stop-color="#E9E9E9" stop-opacity="0.224"/>
<stop offset="0.922" stop-color="#F5F5F5" stop-opacity="0.078"/>
<stop offset="1" stop-color="white" stop-opacity="0"/>
</linearGradient>
<clipPath id="clip0_0_110">
<rect width="60.4486" height="64" fill="white"/>
</clipPath>
</defs>
</svg>
