<svg width="256" height="45" viewBox="0 0 256 45" fill="none" xmlns="http://www.w3.org/2000/svg">
<path d="M83.4316 18.4219L83.5898 20.8652C84.3867 19.998 85.3418 19.3184 86.4551 18.8262C87.5801 18.3223 88.8047 18.0703 90.1289 18.0703C91.8398 18.0703 93.3633 18.4688 94.6992 19.2656C96.0352 20.0508 97.084 21.1348 97.8457 22.5176C98.6191 23.8887 99.0059 25.4531 99.0059 27.2109C99.0059 28.9688 98.6191 30.5391 97.8457 31.9219C97.084 33.293 96.0352 34.377 94.6992 35.1738C93.3633 35.959 91.8398 36.3516 90.1289 36.3516C88.8398 36.3516 87.6445 36.1172 86.543 35.6484C85.4531 35.1797 84.5098 34.5293 83.7129 33.6973V44.7891H80.8125V18.4219H83.4316ZM89.8652 33.7148C91.0488 33.7148 92.1035 33.4336 93.0293 32.8711C93.9551 32.3086 94.6816 31.5352 95.209 30.5508C95.748 29.5664 96.0176 28.4531 96.0176 27.2109C96.0176 25.957 95.748 24.8438 95.209 23.8711C94.6816 22.8867 93.9551 22.1133 93.0293 21.5508C92.1035 20.9883 91.0488 20.707 89.8652 20.707C88.6816 20.707 87.627 20.9883 86.7012 21.5508C85.7754 22.1133 85.043 22.8867 84.5039 23.8711C83.9766 24.8438 83.7129 25.957 83.7129 27.2109C83.7129 28.4531 83.9766 29.5664 84.5039 30.5508C85.043 31.5352 85.7754 32.3086 86.7012 32.8711C87.627 33.4336 88.6816 33.7148 89.8652 33.7148ZM101.618 36V18.4219H104.237L104.413 21.1816C104.999 20.2441 105.755 19.4941 106.68 18.9316C107.606 18.3574 108.714 18.0703 110.003 18.0703C110.53 18.0703 111.081 18.123 111.655 18.2285L111.233 20.918C110.659 20.7773 110.12 20.707 109.616 20.707C107.999 20.707 106.745 21.3047 105.854 22.5C104.964 23.6836 104.518 25.1543 104.518 26.9121V36H101.618ZM111.63 27.2109C111.63 25.4531 112.023 23.8887 112.808 22.5176C113.605 21.1348 114.689 20.0508 116.06 19.2656C117.443 18.4688 119.013 18.0703 120.771 18.0703C122.529 18.0703 124.093 18.4688 125.464 19.2656C126.847 20.0508 127.931 21.1348 128.716 22.5176C129.513 23.8887 129.912 25.4531 129.912 27.2109C129.912 28.9688 129.513 30.5391 128.716 31.9219C127.931 33.293 126.847 34.377 125.464 35.1738C124.093 35.959 122.529 36.3516 120.771 36.3516C119.013 36.3516 117.443 35.959 116.06 35.1738C114.689 34.377 113.605 33.293 112.808 31.9219C112.023 30.5391 111.63 28.9688 111.63 27.2109ZM114.619 27.2109C114.619 28.4531 114.882 29.5664 115.41 30.5508C115.949 31.5352 116.681 32.3086 117.607 32.8711C118.533 33.4336 119.588 33.7148 120.771 33.7148C121.955 33.7148 123.009 33.4336 123.935 32.8711C124.861 32.3086 125.588 31.5352 126.115 30.5508C126.654 29.5664 126.923 28.4531 126.923 27.2109C126.923 25.957 126.654 24.8438 126.115 23.8711C125.588 22.8867 124.861 22.1133 123.935 21.5508C123.009 20.9883 121.955 20.707 120.771 20.707C119.588 20.707 118.533 20.9883 117.607 21.5508C116.681 22.1133 115.949 22.8867 115.41 23.8711C114.882 24.8438 114.619 25.957 114.619 27.2109ZM135.055 18.4219V27.9844C135.055 29.6836 135.512 31.0664 136.426 32.1328C137.352 33.1875 138.553 33.7148 140.03 33.7148C141.026 33.7148 141.916 33.4746 142.702 32.9941C143.487 32.502 144.108 31.8398 144.565 31.0078C145.022 30.1641 145.25 29.2148 145.25 28.1602V18.4219H148.151V36H145.532L145.373 33.3281C144.694 34.2773 143.844 35.0215 142.825 35.5605C141.817 36.0879 140.692 36.3516 139.45 36.3516C138.032 36.3516 136.772 36.0117 135.67 35.332C134.58 34.6406 133.719 33.6914 133.086 32.4844C132.465 31.2773 132.155 29.8945 132.155 28.3359V18.4219H135.055ZM159.622 18.0703C160.911 18.0703 162.107 18.3047 163.208 18.7734C164.31 19.2422 165.253 19.8926 166.038 20.7246V9.63281H168.939V36H166.32L166.161 33.5566C165.376 34.4238 164.421 35.1094 163.296 35.6133C162.171 36.1055 160.946 36.3516 159.622 36.3516C157.923 36.3516 156.4 35.959 155.052 35.1738C153.716 34.377 152.661 33.293 151.888 31.9219C151.126 30.5391 150.745 28.9688 150.745 27.2109C150.745 25.4531 151.126 23.8887 151.888 22.5176C152.661 21.1348 153.716 20.0508 155.052 19.2656C156.4 18.4688 157.923 18.0703 159.622 18.0703ZM153.734 27.2109C153.734 28.4531 153.997 29.5664 154.525 30.5508C155.064 31.5352 155.796 32.3086 156.722 32.8711C157.648 33.4336 158.702 33.7148 159.886 33.7148C161.07 33.7148 162.124 33.4336 163.05 32.8711C163.976 32.3086 164.702 31.5352 165.23 30.5508C165.769 29.5664 166.038 28.4531 166.038 27.2109C166.038 25.957 165.769 24.8438 165.23 23.8711C164.702 22.8867 163.976 22.1133 163.05 21.5508C162.124 20.9883 161.07 20.707 159.886 20.707C158.702 20.707 157.648 20.9883 156.722 21.5508C155.796 22.1133 155.064 22.8867 154.525 23.8711C153.997 24.8438 153.734 25.957 153.734 27.2109ZM187.248 33.75C186.428 34.5703 185.461 35.209 184.348 35.666C183.234 36.123 182.016 36.3516 180.691 36.3516C178.934 36.3516 177.363 35.959 175.98 35.1738C174.609 34.377 173.525 33.293 172.729 31.9219C171.943 30.5391 171.551 28.9688 171.551 27.2109C171.551 25.4531 171.943 23.8887 172.729 22.5176C173.525 21.1348 174.609 20.0508 175.98 19.2656C177.363 18.4688 178.934 18.0703 180.691 18.0703C182.016 18.0703 183.234 18.2988 184.348 18.7559C185.461 19.2129 186.428 19.8457 187.248 20.6543L185.227 22.6758C184.676 22.0547 184.014 21.5742 183.24 21.2344C182.467 20.8828 181.617 20.707 180.691 20.707C179.508 20.707 178.453 20.9883 177.527 21.5508C176.602 22.1133 175.869 22.8867 175.33 23.8711C174.803 24.8438 174.539 25.957 174.539 27.2109C174.539 28.4531 174.803 29.5664 175.33 30.5508C175.869 31.5352 176.602 32.3086 177.527 32.8711C178.453 33.4336 179.508 33.7148 180.691 33.7148C181.617 33.7148 182.467 33.5391 183.24 33.1875C184.014 32.8359 184.676 32.3555 185.227 31.7461L187.248 33.75ZM192.848 8.92969V36H189.86V8.92969H192.848ZM195.443 27.2109C195.443 25.4531 195.836 23.8887 196.621 22.5176C197.418 21.1348 198.502 20.0508 199.873 19.2656C201.255 18.4688 202.826 18.0703 204.584 18.0703C206.341 18.0703 207.906 18.4688 209.277 19.2656C210.66 20.0508 211.744 21.1348 212.529 22.5176C213.326 23.8887 213.724 25.4531 213.724 27.2109C213.724 28.9688 213.326 30.5391 212.529 31.9219C211.744 33.293 210.66 34.377 209.277 35.1738C207.906 35.959 206.341 36.3516 204.584 36.3516C202.826 36.3516 201.255 35.959 199.873 35.1738C198.502 34.377 197.418 33.293 196.621 31.9219C195.836 30.5391 195.443 28.9688 195.443 27.2109ZM198.431 27.2109C198.431 28.4531 198.695 29.5664 199.222 30.5508C199.761 31.5352 200.494 32.3086 201.42 32.8711C202.345 33.4336 203.4 33.7148 204.584 33.7148C205.767 33.7148 206.822 33.4336 207.748 32.8711C208.673 32.3086 209.4 31.5352 209.927 30.5508C210.466 29.5664 210.736 28.4531 210.736 27.2109C210.736 25.957 210.466 24.8438 209.927 23.8711C209.4 22.8867 208.673 22.1133 207.748 21.5508C206.822 20.9883 205.767 20.707 204.584 20.707C203.4 20.707 202.345 20.9883 201.42 21.5508C200.494 22.1133 199.761 22.8867 199.222 23.8711C198.695 24.8438 198.431 25.957 198.431 27.2109ZM218.868 18.4219V27.9844C218.868 29.6836 219.325 31.0664 220.239 32.1328C221.164 33.1875 222.366 33.7148 223.842 33.7148C224.838 33.7148 225.729 33.4746 226.514 32.9941C227.299 32.502 227.92 31.8398 228.377 31.0078C228.834 30.1641 229.063 29.2148 229.063 28.1602V18.4219H231.963V36H229.344L229.186 33.3281C228.506 34.2773 227.657 35.0215 226.637 35.5605C225.629 36.0879 224.504 36.3516 223.262 36.3516C221.844 36.3516 220.584 36.0117 219.483 35.332C218.393 34.6406 217.532 33.6914 216.899 32.4844C216.278 31.2773 215.967 29.8945 215.967 28.3359V18.4219H218.868ZM243.435 18.0703C244.724 18.0703 245.919 18.3047 247.021 18.7734C248.122 19.2422 249.066 19.8926 249.851 20.7246V9.63281H252.751V36H250.132L249.974 33.5566C249.189 34.4238 248.234 35.1094 247.109 35.6133C245.984 36.1055 244.759 36.3516 243.435 36.3516C241.736 36.3516 240.212 35.959 238.864 35.1738C237.529 34.377 236.474 33.293 235.7 31.9219C234.939 30.5391 234.558 28.9688 234.558 27.2109C234.558 25.4531 234.939 23.8887 235.7 22.5176C236.474 21.1348 237.529 20.0508 238.864 19.2656C240.212 18.4688 241.736 18.0703 243.435 18.0703ZM237.546 27.2109C237.546 28.4531 237.81 29.5664 238.337 30.5508C238.876 31.5352 239.609 32.3086 240.534 32.8711C241.46 33.4336 242.515 33.7148 243.698 33.7148C244.882 33.7148 245.937 33.4336 246.863 32.8711C247.788 32.3086 248.515 31.5352 249.042 30.5508C249.581 29.5664 249.851 28.4531 249.851 27.2109C249.851 25.957 249.581 24.8438 249.042 23.8711C248.515 22.8867 247.788 22.1133 246.863 21.5508C245.937 20.9883 244.882 20.707 243.698 20.707C242.515 20.707 241.46 20.9883 240.534 21.5508C239.609 22.1133 238.876 22.8867 238.337 23.8711C237.81 24.8438 237.546 25.957 237.546 27.2109Z" fill="#5C5C5C"/>
<g clip-path="url(#clip0_0_106)">
<path d="M63.9999 24.8866C63.9179 35.9465 54.9011 44.8539 43.8412 44.7953C42.3957 44.7953 41.3878 43.3654 41.8683 42.002C43.9154 36.22 44.8999 30.0747 44.7554 23.9333C44.7358 23.0778 43.7357 23.1989 43.6224 23.6989L41.8214 32.45C41.6925 33.0751 41.1104 33.5165 40.4736 33.4384C39.8368 33.3759 39.3524 32.8407 39.3524 32.2L39.325 20.2141C39.325 19.8547 39.0281 19.5617 38.6687 19.5617C38.3366 19.5617 38.0592 19.8118 38.0202 20.1399L36.7778 30.7897C36.7036 31.4225 36.1723 31.8953 35.5394 31.8953C35.5355 31.8953 35.5355 31.8953 35.5316 31.8953C34.8948 31.8914 34.3635 31.4069 34.2971 30.774L33.0235 18.3584C32.9688 17.8115 32.0194 17.8193 31.9726 18.3663L31.035 29.3168C30.9842 29.9145 30.5115 30.3912 29.9137 30.4498C29.3238 30.5279 28.7612 30.1372 28.5932 29.559L26.1437 21.2182C26.0695 20.9603 25.8273 20.7962 25.5577 20.8275C25.2569 20.8588 25.0459 21.1166 25.0694 21.4174L26.0031 32.8212C26.05 33.3642 25.7335 33.876 25.2256 34.0791C24.7178 34.2823 24.1357 34.1338 23.7919 33.708L21.6471 31.0631C21.2252 30.5435 20.479 30.4224 19.9125 30.7897C19.3382 31.1569 19.1468 31.8953 19.4593 32.5008L23.4246 41.8848C24.0068 43.2677 22.9949 44.7953 21.4947 44.7953H15.2752C6.88356 44.8304 0.0506977 38.064 -8.97841e-05 29.6723C-0.01181 25.6484 1.6173 21.7925 4.51218 18.9952C6.55931 16.9598 9.14556 15.5573 11.9623 14.9518C12.4272 11.1623 14.154 7.63839 16.8731 4.95837C23.6317 -1.64399 34.4221 -1.65181 41.1924 4.93884L41.3917 5.13808C49.7911 4.00904 57.9836 8.32207 61.8083 15.8816C63.2576 18.6632 64.0077 21.7534 63.9999 24.8866Z" fill="#5C5C5C"/>
</g>
<defs>
<clipPath id="clip0_0_106">
<rect width="64" height="44.7945" fill="white"/>
</clipPath>
</defs>
</svg>
