<svg width="165" height="64" viewBox="0 0 165 64" fill="none" xmlns="http://www.w3.org/2000/svg">
<path d="M80.2852 14.6328H89.25C92.4609 14.6328 94.9688 15.3652 96.7734 16.8301C98.5781 18.2832 99.4805 20.252 99.4805 22.7363C99.4805 24.5059 99.0059 26.0352 98.0566 27.3242C97.1191 28.6016 95.7891 29.5449 94.0664 30.1543L100.324 41H94.2949L88.459 30.8926H85.6641V41H80.2852V14.6328ZM88.6172 26.4277C90.3867 26.4277 91.7285 26.0996 92.6426 25.4434C93.5684 24.7871 94.0312 23.8906 94.0312 22.7539C94.0312 21.6172 93.5684 20.7266 92.6426 20.082C91.7285 19.4375 90.3867 19.1152 88.6172 19.1152H85.6641V26.4277H88.6172ZM106.67 33.7227C106.986 34.6953 107.566 35.4863 108.41 36.0957C109.266 36.7051 110.262 37.0098 111.398 37.0098C112.617 37.0098 113.625 36.8164 114.422 36.4297C115.23 36.0312 115.963 35.5215 116.619 34.9004L119.678 38.5566C118.318 39.623 116.971 40.3555 115.635 40.7539C114.311 41.1523 113.039 41.3516 111.82 41.3516C109.875 41.3516 108.158 40.959 106.67 40.1738C105.182 39.377 104.016 38.2871 103.172 36.9043C102.328 35.5098 101.906 33.9277 101.906 32.1582C101.906 30.4121 102.311 28.8594 103.119 27.5C103.928 26.1289 105.029 25.0508 106.424 24.2656C107.83 23.4688 109.424 23.0703 111.205 23.0703C112.975 23.0703 114.545 23.4629 115.916 24.248C117.299 25.0332 118.389 26.1113 119.186 27.4824C119.982 28.8535 120.381 30.4238 120.381 32.1934V33.7227H106.67ZM115.178 30.9102C114.932 29.8789 114.428 29.0469 113.666 28.4141C112.904 27.7812 111.99 27.4648 110.924 27.4648C109.846 27.4648 108.908 27.7871 108.111 28.4316C107.326 29.0762 106.811 29.9023 106.564 30.9102H115.178ZM123.738 23.4219H128.52L128.643 25.3203C129.381 24.6055 130.242 24.0547 131.227 23.668C132.211 23.2695 133.271 23.0703 134.408 23.0703C136.061 23.0703 137.531 23.4688 138.82 24.2656C140.109 25.0508 141.123 26.1348 141.861 27.5176C142.6 28.8887 142.969 30.4531 142.969 32.2109C142.969 33.9688 142.6 35.5391 141.861 36.9219C141.123 38.293 140.109 39.377 138.82 40.1738C137.531 40.959 136.061 41.3516 134.408 41.3516C133.307 41.3516 132.281 41.1699 131.332 40.8066C130.383 40.4316 129.539 39.916 128.801 39.2598V49.7891H123.738V23.4219ZM133.266 27.4648C131.977 27.4648 130.91 27.916 130.066 28.8184C129.223 29.7207 128.801 30.8516 128.801 32.2109C128.801 33.5703 129.223 34.7012 130.066 35.6035C130.91 36.5059 131.977 36.957 133.266 36.957C134.555 36.957 135.621 36.5059 136.465 35.6035C137.309 34.7012 137.73 33.5703 137.73 32.2109C137.73 30.8516 137.309 29.7207 136.465 28.8184C135.621 27.916 134.555 27.4648 133.266 27.4648ZM145.078 32.2109C145.078 30.4531 145.482 28.8887 146.291 27.5176C147.111 26.1348 148.225 25.0508 149.631 24.2656C151.049 23.4688 152.66 23.0703 154.465 23.0703C156.27 23.0703 157.875 23.4688 159.281 24.2656C160.688 25.0508 161.795 26.1348 162.604 27.5176C163.424 28.8887 163.834 30.4531 163.834 32.2109C163.834 33.9688 163.424 35.5391 162.604 36.9219C161.795 38.293 160.688 39.377 159.281 40.1738C157.875 40.959 156.27 41.3516 154.465 41.3516C152.66 41.3516 151.049 40.959 149.631 40.1738C148.225 39.377 147.111 38.293 146.291 36.9219C145.482 35.5391 145.078 33.9688 145.078 32.2109ZM150 32.2109C150 33.5703 150.422 34.7012 151.266 35.6035C152.109 36.5059 153.176 36.957 154.465 36.957C155.754 36.957 156.82 36.5059 157.664 35.6035C158.508 34.7012 158.93 33.5703 158.93 32.2109C158.93 30.8516 158.508 29.7207 157.664 28.8184C156.82 27.916 155.754 27.4648 154.465 27.4648C153.176 27.4648 152.109 27.916 151.266 28.8184C150.422 29.7207 150 30.8516 150 32.2109Z" fill="#5C5C5C"/>
<path d="M33.795 48.7715C33.795 54.3176 38.2883 58.8109 43.8344 58.8109H64C64 53.2648 59.5067 48.7715 53.9606 48.7715H33.795Z" fill="#5C5C5C"/>
<path d="M33.795 33.665H42.9553C42.9553 38.0173 45.419 41.8051 49.0223 43.7044H43.8344C38.2883 43.7044 33.795 39.2111 33.795 33.665Z" fill="#5C5C5C"/>
<path d="M30.205 14.9789C30.205 9.43277 25.7117 4.93945 20.1656 4.93945H0C0 10.4855 4.49331 14.9789 10.0394 14.9789H30.205Z" fill="#5C5C5C"/>
<path d="M30.2047 30.0858H21.0444C21.0444 25.7336 18.5807 21.9457 14.9774 20.0464H20.1653C25.7114 20.0464 30.2047 24.5397 30.2047 30.0858Z" fill="#5C5C5C"/>
<path d="M15.0984 33.7939V53.9596C15.0984 59.5057 10.6051 63.999 5.05896 63.999V43.8334C5.05896 38.2873 9.55227 33.7939 15.0984 33.7939Z" fill="#5C5C5C"/>
<path d="M30.2052 33.7847V42.9449C25.853 42.9449 22.0651 45.4087 20.1658 49.012V43.8241C20.1658 38.2888 24.6699 33.7847 30.2052 33.7847Z" fill="#5C5C5C"/>
<path d="M48.9234 30.205C54.4695 30.205 58.9628 25.7117 58.9628 20.1656V0C53.4167 0 48.9234 4.49331 48.9234 10.0394V30.205Z" fill="#5C5C5C"/>
<path d="M33.8059 30.2049V21.0446C38.1581 21.0446 41.946 18.5809 43.8453 14.9775V20.1655C43.8562 25.7116 39.352 30.2049 33.8059 30.2049Z" fill="#5C5C5C"/>
</svg>
