<svg width="133" height="40" viewBox="0 0 133 40" fill="none" xmlns="http://www.w3.org/2000/svg">
<g clip-path="url(#clip0_0_141)">
<path d="M24.1134 20.3162C22.976 19.4186 21.7333 18.6447 20.3961 18.0015C19.0516 17.3547 17.7289 16.7624 16.4208 16.2173C16.1846 16.1192 15.9557 16.0211 15.7267 15.923C14.7347 15.4979 13.8081 15.08 12.9469 14.6657C11.8859 14.157 11.032 13.5792 10.3888 12.9324C9.74201 12.2893 9.4186 11.5153 9.4186 10.6178C9.4186 9.56399 9.87282 8.72096 10.7812 8.08143C11.6897 7.44553 12.8997 7.1294 14.4113 7.1294C15.4106 7.1294 16.6679 7.31471 18.1795 7.68899C19.2406 7.95062 20.3343 8.3794 21.468 8.97533L26.1483 3.31035C22.3983 1.27184 18.4775 0.254395 14.3859 0.254395C11.8205 0.254395 9.57122 0.694075 7.63808 1.57707C5.70131 2.46006 4.20058 3.69553 3.13227 5.28346C2.06032 6.8714 1.52616 8.7246 1.52616 10.8467C1.52616 12.5618 1.85683 14.0298 2.51817 15.2508C3.18314 16.4717 4.05523 17.5182 5.14172 18.383C6.2282 19.2479 7.42006 20 8.72093 20.6359C9.46948 21.0029 10.2144 21.3554 10.9629 21.6897C11.508 21.9368 12.0567 22.1766 12.6017 22.4056C13.9099 22.9506 15.1235 23.5066 16.2427 24.0734C17.3656 24.6439 18.2667 25.2835 18.9571 25.9957C19.6439 26.7079 19.9855 27.5763 19.9855 28.5938C19.9855 29.8656 19.4549 30.9375 18.3939 31.8024C17.3328 32.6672 16.0247 33.0996 14.4622 33.0996C13.3249 33.0996 12.0967 32.9143 10.7812 32.54C9.46584 32.1657 8.19041 31.6497 6.95131 30.9884C6.07921 30.5197 5.27616 30.0109 4.54578 29.4586L0 34.9601C2.05305 36.5553 4.31686 37.7907 6.79869 38.6628C9.27689 39.5386 11.7442 39.9746 14.2078 39.9746C16.8714 39.9746 19.2297 39.4695 21.2863 38.4593C23.3394 37.4492 24.9528 36.0574 26.1228 34.2842C27.2929 32.5109 27.8815 30.4761 27.8815 28.1868C27.8815 26.3881 27.5363 24.8511 26.8496 23.5756C26.1628 22.3038 25.2471 21.2173 24.1134 20.3162Z" fill="#5C5C5C"/>
<path d="M40.8136 0H33.4808V39.2115H40.8136V0Z" fill="#5C5C5C"/>
<path d="M121.279 25.1822L131.054 13.7505H123.034L118.096 19.4518C117.366 20.3021 116.693 21.1052 116.083 21.8573C115.473 22.6131 114.913 23.3908 114.404 24.1902V1.01794H107.068V39.212H114.404V33.2018L116.617 30.6037L123.899 39.212H132.889L121.279 25.1822Z" fill="#5C5C5C"/>
<path d="M59.0335 13.2371C52.3293 13.2371 46.7806 18.1645 45.8031 24.5961C45.705 25.2575 45.6541 25.9334 45.6541 26.6201C45.6541 27.3178 45.7086 28.0009 45.8067 28.6695C46.7951 35.0867 52.3402 39.9995 59.0335 39.9995C64.6912 39.9995 69.5277 36.4893 71.4863 31.5293H64.3569C63.0342 32.9646 61.1374 33.8621 59.0335 33.8621C55.745 33.8621 52.9652 31.671 52.0858 28.6695H72.2603C72.3584 28.0009 72.4129 27.3178 72.4129 26.6201C72.4129 25.9334 72.362 25.2575 72.2639 24.5961C71.2864 18.1645 65.7377 13.2371 59.0335 13.2371ZM52.0786 24.5961C52.9507 21.5802 55.7341 19.3745 59.0335 19.3745C62.3329 19.3745 65.1164 21.5802 65.9885 24.5961H52.0786Z" fill="#5C5C5C"/>
<path d="M88.8513 13.2371C82.1471 13.2371 76.5984 18.1645 75.6209 24.5961C75.5228 25.2575 75.4719 25.9334 75.4719 26.6201C75.4719 27.3178 75.5264 28.0009 75.6245 28.6695H95.799C94.9196 31.671 92.1398 33.8621 88.8513 33.8621C86.7474 33.8621 84.8506 32.9646 83.5279 31.5293H76.3985C78.3571 36.4893 83.1936 39.9995 88.8513 39.9995C95.5446 39.9995 101.09 35.0867 102.078 28.6695C102.176 28.0009 102.231 27.3178 102.231 26.6201C102.231 25.9334 102.18 25.2575 102.082 24.5961C101.104 18.1645 95.5555 13.2371 88.8513 13.2371ZM81.8963 24.5961C82.7684 21.5802 85.5519 19.3745 88.8513 19.3745C92.1507 19.3745 94.9341 21.5802 95.8062 24.5961H81.8963Z" fill="#5C5C5C"/>
</g>
<defs>
<clipPath id="clip0_0_141">
<rect width="132.889" height="40" fill="white"/>
</clipPath>
</defs>
</svg>
