<svg width="12" height="14" viewBox="0 0 12 14" fill="none" xmlns="http://www.w3.org/2000/svg">
<path d="M10.3334 5.99992H7.00002V3.55592H10V1.55592H7.00002V0.333252H5.00002V1.55592H1.66669C1.40147 1.55592 1.14712 1.66128 0.959581 1.84881C0.772044 2.03635 0.666687 2.2907 0.666687 2.55592V6.99992C0.666687 7.26513 0.772044 7.51949 0.959581 7.70702C1.14712 7.89456 1.40147 7.99992 1.66669 7.99992H5.00002V10.4439H2.00002V12.4439H5.00002V13.6666H7.00002V12.4439H10.3334C10.5986 12.4439 10.8529 12.3386 11.0405 12.151C11.228 11.9635 11.3334 11.7091 11.3334 11.4439V6.99992C11.3334 6.7347 11.228 6.48035 11.0405 6.29281C10.8529 6.10528 10.5986 5.99992 10.3334 5.99992ZM5.00002 5.99992H2.66669V3.55592H5.00002V5.99992ZM9.33335 10.4439H7.00002V7.99992H9.33335V10.4439Z" fill="#1A47E6"/>
</svg>
