<svg width="25" height="28" viewBox="0 0 25 28" fill="none" xmlns="http://www.w3.org/2000/svg">
<path d="M21.9195 4.98666C21.1728 4.98666 20.5061 5.31999 20.0528 5.85332V4.53332C20.0528 3.14666 18.9195 2.01332 17.5328 2.01332C16.3861 2.01332 15.3995 2.78666 15.1061 3.85332L14.9995 2.83999C14.8661 1.59999 13.8261 0.666656 12.5861 0.666656C11.3061 0.666656 10.2795 1.61332 10.1728 2.87999L9.86615 6.34666L9.41281 4.77332C9.06615 3.63999 7.95948 2.90666 6.79948 3.03999C5.47948 3.18666 4.53281 4.33332 4.63948 5.66666L5.13281 11.64C4.11948 10.7067 2.58615 10.56 1.41281 11.3333C0.079481 12.2 -0.373852 13.9067 0.332814 15.24L5.46615 27.4L7.30615 26.6267L2.13281 14.3733C1.87948 13.8933 2.03948 13.3067 2.49281 13.0133C2.94615 12.72 3.54615 12.8133 3.87948 13.24L5.59948 15.36C5.87948 15.7067 6.34615 15.8267 6.74615 15.6533C7.15948 15.4933 7.41281 15.08 7.37281 14.64L6.62615 5.49332C6.61281 5.25332 6.77281 5.05332 7.01281 5.02666C7.23948 4.99999 7.42615 5.13332 7.49281 5.33332L9.45281 12.0133C9.58615 12.48 10.0395 12.7867 10.5061 12.72C10.9861 12.6667 11.3595 12.2933 11.3995 11.8133L12.1461 3.03999C12.1861 2.59999 12.9461 2.59999 12.9861 3.03999L14.0128 12.9867C14.0661 13.4933 14.4928 13.88 14.9995 13.88C14.9995 13.88 14.9995 13.88 15.0128 13.88C15.5195 13.88 15.9461 13.5067 16.0128 13L17.0128 4.46666C17.0395 4.19999 17.2661 3.99999 17.5328 3.99999C17.8261 3.99999 18.0528 4.23999 18.0528 4.51999L18.0795 14.12C18.0795 14.6267 18.4661 15.0667 18.9728 15.1067C19.4795 15.1733 19.9461 14.8133 20.0528 14.32L21.4928 7.33332C21.5861 6.93332 22.3861 6.83999 22.3995 7.51999C22.5595 14.0933 21.0928 20.68 18.1461 26.56L19.9328 27.4533C23.0128 21.28 24.5595 14.3733 24.3861 7.37332C24.3728 6.02666 23.2928 4.98666 21.9195 4.98666Z" fill="#1A47E6"/>
</svg>
