<svg width="22" height="28" viewBox="0 0 22 28" fill="none" xmlns="http://www.w3.org/2000/svg">
<path d="M20.3333 12.7067C18.7333 11.16 17.6267 7.18666 17.6267 4.96V4V0.666664H4.29334V4V4.96C4.29334 7.18666 3.18668 11.16 1.58668 12.7067L0.333344 14L9.68001 27.3333H10.96H12.24L21.5867 14L20.3333 12.7067ZM6.29334 2.66666H15.6267V4H10.96H6.29334V2.66666ZM11.96 24V19.3333H10.96H9.96001V24L2.72001 14.3867C4.56001 12.6667 5.74668 8.42666 6.14668 6H10.96H15.7733C16.1733 8.42666 17.36 12.6667 19.2 14.3867L11.96 24Z" fill="#1A47E6"/>
</svg>
