<svg width="28" height="24" viewBox="0 0 28 24" fill="none" xmlns="http://www.w3.org/2000/svg">
<path d="M18.9053 14.6532C18.0919 12.8053 16.9074 11.1442 15.4253 9.77322C15.5295 9.57849 15.623 9.37819 15.7053 9.17322C15.8141 8.8954 15.9032 8.61024 15.9719 8.31988L16.0119 8.07988C16.0804 7.7239 16.1161 7.36239 16.1186 6.99988C16.1186 5.37676 15.4738 3.82011 14.3261 2.67239C13.1784 1.52467 11.6217 0.879883 9.99859 0.879883C8.37546 0.879883 6.81882 1.52467 5.67109 2.67239C4.52337 3.82011 3.87859 5.37676 3.87859 6.99988V7.03988C3.88256 7.36636 3.91378 7.69194 3.97192 8.01322C3.99859 8.13322 4.02526 8.26655 4.05192 8.38655C4.10526 8.59988 4.17192 8.81322 4.23859 9.01322C4.33598 9.2767 4.44724 9.53483 4.57192 9.78655C3.0942 11.1563 1.91024 12.812 1.09192 14.6532C0.71165 15.4597 0.580834 16.3614 0.716236 17.2427C0.851638 18.124 1.24709 18.9448 1.85192 19.5999C3.87015 21.756 6.66075 23.0243 9.61231 23.1267C12.5639 23.2292 15.4357 22.1575 17.5986 20.1466C17.7719 19.9599 17.9586 19.7866 18.1319 19.5999C18.7413 18.9476 19.1409 18.1274 19.2787 17.2454C19.4166 16.3634 19.2865 15.4604 18.9053 14.6532ZM9.99992 2.82655C10.8234 2.82787 11.6281 3.07319 12.3123 3.53154C12.9965 3.98988 13.5295 4.64069 13.844 5.40178C14.1586 6.16286 14.2405 7.00009 14.0795 7.80772C13.9185 8.61536 13.5218 9.35717 12.9395 9.93949C12.3572 10.5218 11.6154 10.9185 10.8078 11.0795C10.0001 11.2405 9.1629 11.1585 8.40182 10.844C7.64073 10.5294 6.98992 9.99643 6.53158 9.31225C6.07323 8.62806 5.82791 7.8234 5.82659 6.99988C5.82483 6.45134 5.93157 5.90786 6.14068 5.40074C6.34978 4.89361 6.65712 4.43284 7.045 4.04496C7.43288 3.65708 7.89365 3.34974 8.40078 3.14064C8.9079 2.93153 9.45138 2.82479 9.99992 2.82655ZM16.6266 18.2799C16.5333 18.3865 16.4266 18.4799 16.3199 18.5866L16.2133 18.6932C14.4406 20.3372 12.0892 21.2124 9.67303 21.1275C7.2569 21.0425 4.9727 20.0043 3.31992 18.2399C2.98241 17.8713 2.76373 17.4096 2.69239 16.9149C2.62104 16.4202 2.70033 15.9155 2.91992 15.4666C3.59846 13.9428 4.56766 12.566 5.77325 11.4132C6.90787 12.5082 8.42313 13.1201 9.99992 13.1201C11.5767 13.1201 13.092 12.5082 14.2266 11.4132C15.4484 12.5704 16.4235 13.9628 17.0933 15.5065C17.3086 15.9611 17.3792 16.4708 17.2955 16.9668C17.2118 17.4628 16.9779 17.9212 16.6253 18.2799H16.6266Z" fill="#1A47E6"/>
<path d="M26.9719 14.2802C26.2744 12.7016 25.2628 11.2817 23.9985 10.1069L23.9852 10.0935C24.0785 9.90687 24.1719 9.72021 24.2519 9.53354C24.2519 9.53354 24.2652 9.53354 24.2519 9.52021C24.3192 9.35605 24.3727 9.18657 24.4119 9.01354C24.4271 8.9752 24.4361 8.9347 24.4385 8.89354C24.4881 8.71886 24.5238 8.54052 24.5452 8.36021V8.32021C24.5718 8.11684 24.5851 7.91197 24.5852 7.70687C24.586 7.00599 24.4455 6.31215 24.1719 5.66687C23.9726 5.2005 23.7077 4.76499 23.3852 4.37354C23.2766 4.24279 23.1609 4.11816 23.0385 4.00021C22.2685 3.23204 21.279 2.72196 20.2065 2.54044C19.1341 2.35892 18.0318 2.51491 17.0519 2.98687C17.3909 3.56754 17.6509 4.19081 17.8252 4.84021C18.2895 4.59347 18.8075 4.46523 19.3332 4.46687C20.1936 4.46722 21.0189 4.80826 21.6286 5.41542C22.2382 6.02258 22.5827 6.84646 22.5865 7.70687C22.5847 7.83172 22.5758 7.95637 22.5599 8.08021C22.5518 8.20677 22.5295 8.33201 22.4932 8.45354C22.3314 9.16913 21.9298 9.8079 21.355 10.2638C20.7802 10.7198 20.0669 10.9655 19.3332 10.9602C19.253 10.9624 19.1727 10.958 19.0932 10.9469C19.5344 11.5549 19.9267 12.1969 20.2665 12.8669C21.1877 12.7103 22.0467 12.2993 22.7465 11.6802C23.7719 12.6549 24.5924 13.8244 25.1599 15.1202C25.3201 15.4598 25.3714 15.8406 25.307 16.2105C25.2426 16.5804 25.0655 16.9214 24.7999 17.1869C24.7199 17.2802 24.6399 17.3602 24.5599 17.4402L24.4532 17.5335C23.4016 18.5114 22.0924 19.1684 20.6799 19.4269C20.4015 19.9722 20.0468 20.475 19.6265 20.9202C19.4665 21.0935 19.3065 21.2669 19.1332 21.4402L19.0399 21.5335C19.1372 21.5446 19.2352 21.5491 19.3332 21.5469C21.7506 21.5487 24.0777 20.6284 25.8399 18.9735C26.0053 18.8281 26.1611 18.6723 26.3065 18.5069C26.8284 17.9503 27.1709 17.2496 27.2895 16.4959C27.4082 15.7422 27.2975 14.9702 26.9719 14.2802Z" fill="#1A47E6"/>
</svg>
